<?xml version="1.0" encoding="UTF-8"?> <svg xmlns="http://www.w3.org/2000/svg" xmlns:xlink="http://www.w3.org/1999/xlink" width="214px" height="140px" viewBox="0 0 214 140"><!-- Generator: Sketch 52.5 (67469) - http://www.bohemiancoding.com/sketch --><title>Group 4</title><desc>Created with Sketch.</desc><defs><polygon id="path-1" points="0 0.191220395 106.108268 0.191220395 106.108268 56.3574386 0 56.3574386"></polygon><polygon id="path-3" points="0.0837390329 0.0478722089 7.57770988 0.0478722089 7.57770988 4.71836765 0.0837390329 4.71836765"></polygon></defs><g id="Page-1" stroke="none" stroke-width="1" fill="none" fill-rule="evenodd"><g id="100_Homepage" transform="translate(-144.000000, -39.000000)"><g id="Group-4" transform="translate(251.000000, 109.000000) rotate(-360.000000) translate(-251.000000, -109.000000) translate(144.000000, 39.000000)"><rect id="Rectangle" fill="#FFFFFF" fill-rule="nonzero" x="1.13686838e-13" y="2.84217094e-14" width="214" height="118" rx="12"></rect><g id="Group-61" transform="translate(20.000000, 21.000000)"><path d="M119.618981,19.4958304 C116.592058,19.6832666 113.150435,19.6494943 109.712594,19.5931368 C97.0390782,19.3852262 84.6142151,17.6419432 72.6214992,13.3446315 C68.6628121,11.9261957 64.6475844,10.7152483 60.5093964,9.95030616 C55.6565681,9.05301886 50.8020583,9.18515291 45.9393512,9.9199111 C39.8857169,10.8342956 34.7518668,13.5348117 30.4373308,17.8532311 C29.2827663,19.0088763 28.2337163,20.2614058 27.3502948,21.6416367 C27.118457,22.0038445 26.827136,22.2383507 26.4183197,22.291331 C25.3150411,22.434441 24.2123931,22.4477389 23.1561967,22.0331841 C22.026014,21.5899229 21.6749995,20.7152208 22.2254828,19.640418 C24.1411393,15.8986603 26.9402173,12.9440078 30.3685993,10.5746712 C36.1044288,6.6104386 42.5651978,4.93512237 49.4272164,4.62779461 C54.1860905,4.41439601 58.923105,4.58811218 63.5918083,5.70977408 C67.472936,6.64210012 71.3015165,7.76502847 75.152377,8.80627012 C82.4635681,10.7836372 89.8649299,12.2746834 97.407118,13.0271721 C100.748482,13.3604623 104.095311,13.5738609 107.450968,13.6998737 C112.121773,13.8752785 116.794049,13.9516883 121.461702,13.761086 C132.496379,13.3106482 143.346511,11.6975996 153.866437,8.21314443 C158.180763,6.78415478 162.379275,5.06683427 166.320937,2.75913207 C167.967763,1.79514451 170.373158,3.29400057 170.369164,5.19749078 C170.367693,5.95462312 169.859878,6.25097488 169.363623,6.5804657 C166.38042,8.56163216 163.233691,10.2428585 159.95181,11.6640384 C151.891087,15.1546147 143.440886,17.1674427 134.767674,18.3332196 C129.875331,18.9907237 124.959025,19.3225364 119.618981,19.4958304" id="Fill-1" fill="#DF3726"></path><path d="M119.343508,42.070532 C119.322489,44.7752696 119.608345,47.432937 120.489665,50.0063849 C122.751922,56.6103434 128.477242,57.7942729 132.963291,56.2747314 C136.152059,55.1946516 137.901877,52.6672185 138.953028,49.5962627 C140.047059,46.3999274 140.178426,43.0938321 139.931455,39.7605079 C139.730095,37.04395 139.312871,34.3698186 138.132453,31.8759467 C137.229904,29.9692903 135.965622,28.3914915 134.025373,27.4680307 C129.050846,25.1008049 123.418849,27.2409121 121.12044,32.3576238 C119.731936,35.449054 119.38008,38.7306644 119.343508,42.070532 M129.75918,62.0806087 C126.211412,62.1238794 122.978505,61.6626767 119.936239,60.283079 C115.920591,58.4619087 113.271587,55.3396613 112.023068,51.1523206 C110.298263,45.3669177 110.007152,39.4590903 111.553928,33.595378 C113.345363,26.8048276 117.940921,22.9636527 124.752494,21.7524943 C128.591164,21.0700831 132.431725,21.1500812 136.229828,22.1033038 C141.861194,23.517096 145.671488,26.981921 147.312219,32.5665898 C149.229557,39.0913946 149.128456,45.648283 146.657902,52.0303999 C144.540465,57.5006652 140.353303,60.5450253 134.695033,61.6582441 C132.990196,61.993434 131.266861,62.1397102 129.75918,62.0806087" id="Fill-3" fill="#DF3726"></path><g id="Group-7" transform="translate(0.000000, 21.335217)"><mask id="mask-2" fill="white"><use xlink:href="#path-1"></use></mask><g id="Clip-6"></g><path d="M98.2678182,0.834534181 C98.296614,7.45685641 98.2848434,34.385185 98.2848434,40.7434502 C98.2848434,45.3827062 95.5668981,48.1870721 90.7512731,49.3085229 C88.0671681,49.9337322 85.3326178,50.1720379 82.6113094,49.8362148 C66.80893,47.8862877 50.2311658,42.7756972 41.4717771,40.1883183 C35.7926984,38.5106802 30.0808304,37.5737105 24.1573027,38.182878 C16.2939469,38.9917241 9.47880032,42.0021009 3.98552816,47.8010127 C2.45956085,49.4123726 1.11834908,51.1695867 0.224838463,53.2271629 C-0.0345339435,53.8238769 -0.129539071,54.4689275 0.269608578,55.0352464 C0.951879916,56.0032444 3.89052304,56.9376812 4.67662741,55.9097374 C4.90972628,55.6045204 5.25569628,55.1416291 5.37823608,54.9408951 C7.32962458,51.747937 9.9565584,49.2527986 13.1804271,47.394901 C19.1781513,43.9378858 25.0564884,42.5589214 32.2117198,43.0353216 C38.4097534,43.4479767 72.381233,52.9514967 85.2029316,53.4439387 C88.8501196,53.5840937 92.4023025,53.4435166 95.7804494,51.9879313 C102.040909,49.2903703 105.965966,44.865146 105.965966,37.6661621 C105.965966,34.7649121 106.077786,10.3944117 106.108263,1.10745643 L106.108263,1.10196843 C106.109314,0.8488874 105.911527,0.640976793 105.659932,0.630634032 C103.39263,0.538393488 101.100316,0.39760529 98.8559252,0.193494065 C98.5509419,0.165631933 98.2785378,0.397183137 98.2694997,0.704510897 C98.2682386,0.745881942 98.2678182,0.789363754 98.2678182,0.834534181" id="Fill-5" fill="#274E92" mask="url(#mask-2)"></path></g><path d="M67.8861662,17.1816059 C67.3411479,17.3424464 67.1677425,17.6012265 67.1698444,18.1789436 C67.1919142,24.9589402 67.2003217,59.5417563 67.3333709,60.0327209 C67.6152335,61.0729071 68.02426,61.4604441 69.0758322,61.5353763 C69.9653493,61.5986993 70.8588599,61.6204402 71.750689,61.6267725 C76.8963096,61.663711 82.0400386,61.5531068 87.1833471,61.4045087 C88.446579,61.3679924 89.7093906,60.4381993 90.1617159,59.1761714 C90.439795,58.4008864 90.4715335,57.5808532 90.5905001,56.7736957 C90.7035814,56.0068538 90.494444,55.8426361 89.7518486,55.8481241 C85.2336401,55.8814743 80.7150113,55.8603666 76.1963825,55.8603666 C75.3203175,55.8603666 75.4151124,55.011838 75.4151124,55.011838 L75.1967267,41.4311594 C75.1967267,41.4311594 75.0090286,40.4013159 75.8693294,40.4013159 C79.0444344,40.4013159 82.2199598,40.2056477 85.3923323,40.2639049 C86.7139966,40.2883898 87.5751382,39.4453492 87.968821,38.3713907 C88.3175234,37.4200677 88.3271921,36.4083768 88.4802092,35.4211708 C88.5859339,34.739815 88.3568286,34.6233007 87.7407666,34.626889 C83.8266394,34.6507406 79.9120919,34.624145 75.9979647,34.6534846 C75.3640367,34.6583394 75.2078667,34.4668928 75.2097584,33.8522373 C75.2196373,30.3973329 75.1843256,26.9426396 75.1706634,23.4877352 C75.1637272,21.7275661 75.1694023,21.724611 76.9377167,21.7235556 C80.2742464,21.7212338 83.610776,21.707936 86.9468853,21.7357981 C87.5520175,21.7408639 88.0177948,21.6631877 88.4522541,21.2173936 C88.7103654,20.9522812 89.0145079,20.5368821 88.9176111,20.2124571 C83.8459767,19.3174917 78.8331951,18.070028 73.8918775,16.3997776 C73.1969949,16.1648492 72.4569218,16.09836 71.7319822,16.2098085 C70.4254515,16.4101204 69.1594872,16.8058893 67.8861662,17.1816059" id="Fill-8" fill="#DF3726"></path><path d="M46.0078936,12.3309776 C45.8319659,12.3558847 45.7012288,12.5068045 45.701439,12.6853755 C45.7050122,15.9173828 45.7344386,43.6372492 45.712579,57.7770702 C45.7111077,58.7070744 46.0814595,59.3248961 46.7696161,59.8411898 C47.3728566,60.2937384 51.5221846,61.1899703 52.869702,61.535714 C53.7665756,61.7659988 53.7674164,61.7672652 53.7674164,60.8625903 C53.7676266,52.741412 53.7678367,14.606174 53.7680469,12.1682374 C53.7680469,11.971725 53.6101955,11.8113066 53.4143,11.8098291 C50.9542557,11.7901989 48.4708805,11.9793237 46.0078936,12.3309776" id="Fill-10" fill="#DF3726"></path><path d="M108.26736,5.99453773 C108.26736,2.68379877 105.594815,0.000168861407 102.298222,0.000168861407 C99.0012073,0.000168861407 96.3286626,2.68379877 96.3286626,5.99453773 C96.3286626,9.30548777 99.0012073,11.9891177 102.298222,11.9891177 C105.594815,11.9891177 108.26736,9.30548777 108.26736,5.99453773" id="Fill-12" fill="#274E92"></path><path d="M154.939449,75.2596716 L153.126785,73.4068398 L154.151873,73.4068398 L154.151873,71.8300964 L155.036556,71.8300964 L155.036556,73.4068398 L157.466123,73.4068398 C158.033421,73.4068398 158.316965,73.1704338 158.316965,72.6969887 C158.316965,72.3430129 158.2001,71.969196 157.966161,71.5755378 L158.883633,71.5755378 C159.095713,71.9548428 159.201648,72.3685532 159.201648,72.816247 C159.201648,73.2675291 159.07028,73.6434568 158.807965,73.9433969 C158.728724,74.037115 158.639604,74.1147913 158.540816,74.1762146 C158.441817,74.2376379 158.312551,74.2891407 158.152388,74.3305117 C157.992224,74.3720938 157.687451,74.3929904 157.237858,74.3929904 L155.036556,74.3929904 L155.036556,75.2596716 L154.939449,75.2596716 Z" id="Fill-14" fill="#274E92"></path><path d="M151.578264,70.776359 L151.578264,69.7902084 L154.804655,69.7902084 C154.304617,69.3786087 154.054493,68.8675919 154.054493,68.2569468 C154.054493,67.924712 154.137517,67.6266716 154.302935,67.3630368 C154.468354,67.0994019 154.696618,66.9035227 154.988149,66.775188 C155.27926,66.6472755 155.712879,66.5828971 156.288164,66.5828971 L159.115408,66.5828971 L159.115408,67.5690477 L156.045607,67.5690477 C155.682191,67.5690477 155.39003,67.6585442 155.168701,67.8371152 C154.947373,68.0158972 154.837024,68.2516699 154.837024,68.5442223 C154.837024,68.7607871 154.892934,68.9648983 155.004124,69.1563449 C155.115734,69.3477915 155.30091,69.5592904 155.559862,69.7902084 L159.115408,69.7902084 L159.115408,70.776359 L151.578264,70.776359 Z" id="Fill-16" fill="#274E92"></path><path d="M156.131805,64.3317212 L156.131805,61.8230739 C155.739804,61.8484031 155.437553,61.9659729 155.225473,62.175361 C155.013183,62.3847492 154.907248,62.6665367 154.907248,63.0205124 C154.907248,63.3746992 155.013183,63.6645076 155.225473,63.8901486 C155.437553,64.1160008 155.739804,64.2631213 156.131805,64.3317212 Z M156.719912,60.8478993 L156.719912,64.3534621 C157.194728,64.3281329 157.572436,64.1683478 157.852827,63.8738957 C158.133429,63.5796547 158.273624,63.1995055 158.273624,62.733448 C158.273624,62.0833316 158.072264,61.4836625 157.669333,60.9344408 L158.629894,60.9344408 C158.831464,61.2379692 158.975023,61.5389646 159.06141,61.8367939 C159.147798,62.1346232 159.191096,62.4841663 159.191096,62.8850011 C159.191096,63.4342228 159.077805,63.8785394 158.851222,64.2179508 C158.624429,64.5573623 158.319445,64.8292291 157.936482,65.0333404 C157.553519,65.2374516 157.110022,65.3394017 156.606621,65.3394017 C155.851204,65.3394017 155.237033,65.1247366 154.76411,64.6947732 C154.291186,64.265021 154.054514,63.706934 154.054514,63.0205124 C154.054514,62.3596311 154.28488,61.8321502 154.745193,61.4384921 C155.205715,61.0448339 155.822408,60.8478993 156.595691,60.8478993 L156.719912,60.8478993 Z" id="Fill-18" fill="#274E92"></path><path d="M154.151852,58.6130608 L155.290232,58.6130608 L155.203845,58.5588141 C154.437498,58.0819917 154.054535,57.6051693 154.054535,57.128558 C154.054535,56.7564296 154.241813,56.3680484 154.615738,55.9634143 L155.478981,56.4837185 C155.155081,56.8269293 154.993446,57.1445998 154.993446,57.4373633 C154.993446,57.7552449 155.144572,58.0304889 155.446612,58.2635177 C155.748863,58.4963354 156.106814,58.6130608 156.520254,58.6130608 L159.11545,58.6130608 L159.11545,59.6044883 L154.151852,59.6044883 L154.151852,58.6130608 Z" id="Fill-20" fill="#274E92"></path><path d="M158.133513,53.0026195 L156.660513,53.0026195 L156.91421,53.6639229 C157.04726,53.9997461 157.181149,54.2374185 157.31609,54.376307 C157.450821,54.5151955 157.619182,54.5848508 157.820542,54.5848508 C158.025476,54.5848508 158.192786,54.5189949 158.322262,54.3870719 C158.451738,54.25536 158.516476,54.0845989 158.516476,53.8749997 C158.516476,53.5609175 158.388892,53.2702648 158.133513,53.0026195 M156.131889,52.0329328 L158.24155,52.0329328 C158.410331,52.0329328 158.494827,51.9753089 158.494827,51.8594277 C158.494827,51.7403804 158.406968,51.5544218 158.23062,51.3013408 L158.829446,51.3013408 C158.973425,51.5255043 159.071373,51.7053417 159.1235,51.8404308 C159.175416,51.9761532 159.20169,52.1179968 159.20169,52.2659616 C159.20169,52.6885372 159.036272,52.9376078 158.705435,53.0135954 C159.029125,53.4325828 159.19097,53.878588 159.19097,54.3520332 C159.19097,54.6986212 159.076838,54.9875853 158.848153,55.2187143 C158.619889,55.4498434 158.332982,55.5657245 157.987852,55.5657245 C157.674882,55.5657245 157.395121,55.4525874 157.14857,55.2267353 C156.90244,55.0013053 156.707385,54.6804686 156.563406,54.2650695 L156.131889,53.0026195 L155.867472,53.0026195 C155.270537,53.0026195 154.97186,53.3027706 154.97186,53.9022286 C154.97186,54.4404743 155.248678,54.9641558 155.802524,55.4732729 L154.729092,55.4732729 C154.279499,55.0908018 154.054598,54.5396804 154.054598,53.820964 C154.054598,53.2827183 154.195004,52.8508553 154.475395,52.5260081 C154.565356,52.4177258 154.685163,52.3199972 154.834187,52.2332447 C154.98363,52.1467032 155.132864,52.0916122 155.282098,52.0679716 C155.431542,52.044542 155.714665,52.0329328 156.131889,52.0329328" id="Fill-22" fill="#274E92"></path><path d="M155.068967,48.7864456 L155.068967,49.4838432 L158.122583,49.4838432 C158.277282,49.1809481 158.354841,48.8639108 158.354841,48.5323092 C158.354841,48.0708954 158.194678,47.6934902 157.874561,47.3996713 C157.554234,47.1058525 157.142475,46.9589431 156.639074,46.9589431 C156.315384,46.9589431 156.029107,47.0283873 155.781295,47.1670647 C155.532853,47.3059532 155.352301,47.4952891 155.239009,47.7348612 C155.125718,47.9744333 155.068967,48.3250318 155.068967,48.7864456 Z M161.64576,50.4915237 L154.151915,50.4915237 L154.151915,48.7651269 C154.151915,47.8815596 154.371142,47.1932383 154.810015,46.7007962 C155.248678,46.2083541 155.862007,45.9620275 156.649793,45.9620275 C157.39428,45.9620275 158.005928,46.1937898 158.484107,46.6571033 C158.962496,47.1206278 159.20169,47.7112206 159.20169,48.4290927 C159.20169,48.7465521 159.131487,49.0979949 158.991291,49.4838432 L161.64576,49.4838432 L161.64576,50.4915237 Z" id="Fill-24" fill="#274E92"></path><path d="M156.131805,44.0034041 L156.131805,41.4947568 C155.739804,41.5202971 155.437553,41.6376558 155.225473,41.8470439 C155.013183,42.0566431 154.907248,42.3382195 154.907248,42.6924063 C154.907248,43.046382 155.013183,43.3364015 155.225473,43.5618315 C155.437553,43.7878947 155.739804,43.9350152 156.131805,44.0034041 Z M156.719912,40.5197932 L156.719912,44.025356 C157.194728,44.0000268 157.572436,43.8402417 157.852827,43.5457896 C158.133429,43.2513376 158.273624,42.8711883 158.273624,42.4051308 C158.273624,41.7550144 158.072264,41.1555564 157.669333,40.6063347 L158.629894,40.6063347 C158.831464,40.9098631 158.975023,41.2106475 159.06141,41.5084768 C159.147798,41.8065172 159.191096,42.1560603 159.191096,42.556684 C159.191096,43.1059057 159.077805,43.5504333 158.851222,43.8896337 C158.624429,44.2292562 158.319445,44.500912 157.936482,44.7050232 C157.553519,44.9091344 157.110022,45.0112956 156.606621,45.0112956 C155.851204,45.0112956 155.237033,44.7964194 154.76411,44.3666672 C154.291186,43.9367038 154.054514,43.3786169 154.054514,42.6924063 C154.054514,42.0313139 154.28488,41.5038331 154.745193,41.1101749 C155.205715,40.7165168 155.822408,40.5197932 156.595691,40.5197932 L156.719912,40.5197932 Z" id="Fill-26" fill="#274E92"></path><path d="M159.115492,36.1663562 L158.478831,36.1663562 C158.707096,36.3757443 158.884705,36.6151054 159.011448,36.8840172 C159.138192,37.1533511 159.201669,37.4214186 159.201669,37.6888529 C159.201669,38.0029351 159.123479,38.2927435 158.966889,38.558278 C158.810508,38.8238126 158.598218,39.0243355 158.330438,39.1598468 C158.062448,39.2953581 157.617479,39.3631137 156.995112,39.3631137 L154.151894,39.3631137 L154.151894,38.3769631 L156.980819,38.3769631 C157.501455,38.3769631 157.865291,38.3018198 158.071907,38.1519553 C158.278522,38.0020908 158.381724,37.7393002 158.381724,37.3637946 C158.381724,36.8941489 158.15325,36.4950027 157.6963,36.1663562 L154.151894,36.1663562 L154.151894,35.1802056 L159.115492,35.1802056 L159.115492,36.1663562 Z" id="Fill-28" fill="#274E92"></path><path d="M154.939449,34.381069 L153.126785,32.5282372 L154.151873,32.5282372 L154.151873,30.9514938 L155.036556,30.9514938 L155.036556,32.5282372 L157.466123,32.5282372 C158.033421,32.5282372 158.316965,32.2916201 158.316965,31.818386 C158.316965,31.4644103 158.2001,31.0905934 157.966161,30.6969352 L158.883633,30.6969352 C159.095713,31.0762402 159.201648,31.4897395 159.201648,31.9376444 C159.201648,32.3889265 159.07028,32.7648542 158.807965,33.0645832 C158.728724,33.1585124 158.639604,33.2361886 158.540816,33.2974009 C158.441817,33.3588242 158.312551,33.410327 158.152388,33.4519091 C157.992224,33.4934912 157.687451,33.5143878 157.237858,33.5143878 L155.036556,33.5143878 L155.036556,34.381069 L154.939449,34.381069 Z" id="Fill-30" fill="#274E92"></path><path d="M156.131805,29.112192 L156.131805,26.6035448 C155.739804,26.628874 155.437553,26.7462326 155.225473,26.9556208 C155.013183,27.16522 154.907248,27.4470075 154.907248,27.8009832 C154.907248,28.1549589 155.013183,28.4449784 155.225473,28.6706195 C155.437553,28.8964716 155.739804,29.0435921 156.131805,29.112192 Z M156.719912,25.6283701 L156.719912,29.1339329 C157.194728,29.1086037 157.572436,28.9488186 157.852827,28.6543665 C158.133429,28.3601255 158.273624,27.9797652 158.273624,27.5139188 C158.273624,26.8638024 158.072264,26.2641333 157.669333,25.7149116 L158.629894,25.7149116 C158.831464,26.01844 158.975023,26.3192244 159.06141,26.6172647 C159.147798,26.915094 159.191096,27.2646372 159.191096,27.6654719 C159.191096,28.2146937 159.077805,28.6590102 158.851222,28.9984217 C158.624429,29.3378331 158.319445,29.6097 157.936482,29.8138112 C157.553519,30.0179224 157.110022,30.1198725 156.606621,30.1198725 C155.851204,30.1198725 155.237033,29.9049963 154.76411,29.4752441 C154.291186,29.0454918 154.054514,28.4871937 154.054514,27.8009832 C154.054514,27.1398908 154.28488,26.6126211 154.745193,26.2189629 C155.205715,25.8253047 155.822408,25.6283701 156.595691,25.6283701 L156.719912,25.6283701 Z" id="Fill-32" fill="#274E92"></path><path d="M154.151852,23.4640313 L154.783048,23.4640313 C154.297302,23.023303 154.054535,22.5230511 154.054535,21.9632755 C154.054535,21.6525705 154.134617,21.3636064 154.29478,21.0961722 C154.454734,20.8291601 154.67417,20.6258932 154.95309,20.4867936 C155.2318,20.347694 155.673195,20.2780387 156.277487,20.2780387 L159.11545,20.2780387 L159.11545,21.2641893 L156.288206,21.2641893 C155.781232,21.2641893 155.418657,21.3418655 155.201112,21.497218 C154.983567,21.6525705 154.87469,21.9126171 154.87469,22.2773577 C154.87469,22.7434152 155.106738,23.1389731 155.570623,23.4640313 L159.11545,23.4640313 L159.11545,24.4717117 L154.151852,24.4717117 L154.151852,23.4640313 Z" id="Fill-34" fill="#274E92"></path><polygon id="Fill-36" fill="#274E92" points="163.189951 71.5068746 163.189951 70.4377708 168.239725 72.6393014 168.239725 72.9728027 163.189951 75.2273135 163.189951 74.1480781 166.243357 72.8026748"></polygon><path d="M164.063956,67.6487503 C164.063956,68.1217733 164.218444,68.5101545 164.527841,68.8136829 C164.837449,69.1170002 165.231132,69.2687644 165.70931,69.2687644 C166.184336,69.2687644 166.571923,69.1132008 166.872072,68.802918 C167.172431,68.4920019 167.322716,68.0928558 167.322716,67.6052684 C167.322716,67.1212694 167.170749,66.7248673 166.866607,66.416062 C166.562885,66.1072567 166.173406,65.9529596 165.69859,65.9529596 C165.227348,65.9529596 164.837449,66.1138001 164.527841,66.4350589 C164.218444,66.7565288 164.063956,67.1609519 164.063956,67.6487503 M163.179063,67.5945035 C163.179063,66.8358937 163.422671,66.2056185 163.910098,65.7034668 C164.397525,65.2015263 165.009803,64.9505561 165.747144,64.9505561 C166.463045,64.9505561 167.057458,65.2051146 167.530382,65.7144428 C168.003305,66.2237711 168.239767,66.8648112 168.239767,67.6377743 C168.239767,68.3856192 167.999732,69.0106175 167.519452,69.512558 C167.039382,70.0144986 166.439714,70.2654688 165.72024,70.2654688 C164.993829,70.2654688 164.388486,70.0119656 163.904633,69.5045371 C163.42099,68.9971086 163.179063,68.36029 163.179063,67.5945035" id="Fill-38" fill="#274E92"></path><path d="M164.063956,61.5817288 C164.063956,62.0549629 164.218444,62.443133 164.527841,62.7466614 C164.837449,63.0499787 165.231132,63.2017429 165.70931,63.2017429 C166.184336,63.2017429 166.571923,63.0463904 166.872072,62.7356854 C167.172431,62.4251915 167.322716,62.0258343 167.322716,61.538458 C167.322716,61.054459 167.170749,60.6578458 166.866607,60.3490405 C166.562885,60.0402352 166.173406,59.885727 165.69859,59.885727 C165.227348,59.885727 164.837449,60.0465675 164.527841,60.3680374 C164.218444,60.6895073 164.063956,61.0939304 164.063956,61.5817288 M163.179063,61.527482 C163.179063,60.7688722 163.422671,60.138808 163.910098,59.6366564 C164.397525,59.1345048 165.009803,58.8835346 165.747144,58.8835346 C166.463045,58.8835346 167.057458,59.1383042 167.530382,59.6474214 C168.003305,60.1567496 168.239767,60.7980008 168.239767,61.5707528 C168.239767,62.3183867 167.999732,62.9433849 167.519452,63.4455365 C167.039382,63.9476882 166.439714,64.1986584 165.72024,64.1986584 C164.993829,64.1986584 164.388486,63.9447331 163.904633,63.4373046 C163.42099,62.929876 163.179063,62.2932685 163.179063,61.527482" id="Fill-40" fill="#274E92"></path><path d="M163.189951,56.7879856 L164.328331,56.7879856 L164.241943,56.73395 C163.475597,56.2569165 163.092633,55.7803052 163.092633,55.3034828 C163.092633,54.9315655 163.279911,54.5431843 163.653836,54.1385501 L164.51708,54.6586433 C164.193179,55.0020652 164.031545,55.3197357 164.031545,55.6122881 C164.031545,55.9301697 164.18267,56.2054138 164.484711,56.4386536 C164.786962,56.6714712 165.144912,56.7879856 165.558353,56.7879856 L168.153548,56.7879856 L168.153548,57.7794131 L163.189951,57.7794131 L163.189951,56.7879856 Z" id="Fill-42" fill="#274E92"></path><path d="M163.189951,50.4894973 L163.189951,49.5033467 L168.860411,49.5033467 C169.719661,49.5033467 170.327736,49.8347372 170.683795,50.4975183 L169.966212,51.2316432 C169.887181,51.0038914 169.748667,50.8234208 169.55109,50.6898092 C169.353093,50.5561976 169.122937,50.4894973 168.860411,50.4894973 L163.189951,50.4894973 Z" id="Fill-44" fill="#274E92"></path><path d="M164.063956,45.7715941 C164.063956,46.2448282 164.218444,46.6329983 164.527841,46.9365267 C164.837449,47.239844 165.231132,47.3916082 165.70931,47.3916082 C166.184336,47.3916082 166.571923,47.2362557 166.872072,46.9255507 C167.172431,46.6150568 167.322716,46.2156996 167.322716,45.7283233 C167.322716,45.2443243 167.170749,44.8477111 166.866607,44.5389058 C166.562885,44.2301005 166.173406,44.0755923 165.69859,44.0755923 C165.227348,44.0755923 164.837449,44.2364328 164.527841,44.5579027 C164.218444,44.8793726 164.063956,45.2837957 164.063956,45.7715941 M163.179063,45.7173473 C163.179063,44.9587375 163.422671,44.3286733 163.910098,43.8265217 C164.397525,43.3243701 165.009803,43.0733999 165.747144,43.0733999 C166.463045,43.0733999 167.057458,43.3281695 167.530382,43.8372867 C168.003305,44.3466149 168.239767,44.9878661 168.239767,45.7606181 C168.239767,46.508252 167.999732,47.1332502 167.519452,47.6354018 C167.039382,48.1375535 166.439714,48.3885237 165.72024,48.3885237 C164.993829,48.3885237 164.388486,48.1345984 163.904633,47.6271699 C163.42099,47.1197413 163.179063,46.4831338 163.179063,45.7173473" id="Fill-46" fill="#274E92"></path><path d="M163.189951,41.0483294 L163.821146,41.0483294 C163.335401,40.6076012 163.092633,40.1075603 163.092633,39.5475737 C163.092633,39.2368687 163.172715,38.9479046 163.332879,38.6804704 C163.492832,38.4134583 163.712269,38.2101913 163.991188,38.0710918 C164.269898,37.9319922 164.711294,37.8623368 165.315585,37.8623368 L168.153548,37.8623368 L168.153548,38.8484875 L165.326305,38.8484875 C164.819331,38.8484875 164.456756,38.9263748 164.239211,39.0815162 C164.021666,39.2368687 163.912788,39.4969153 163.912788,39.861867 C163.912788,40.3277134 164.144836,40.7232712 164.608722,41.0483294 L168.153548,41.0483294 L168.153548,42.0560099 L163.189951,42.0560099 L163.189951,41.0483294 Z" id="Fill-48" fill="#274E92"></path><g id="Group-52" transform="translate(163.106148, 32.522285)"><mask id="mask-4" fill="white"><use xlink:href="#path-3"></use></mask><g id="Clip-51"></g><path d="M5.2793845,2.65403695 C5.2793845,2.98648284 5.34958741,3.25813863 5.48978303,3.46942647 C5.62997865,3.6807143 5.80968967,3.78646376 6.02933648,3.78646376 C6.54009414,3.78646376 6.79547297,3.32420566 6.79547297,2.39947838 C6.79547297,1.96254949 6.73136552,1.62377129 6.6037812,1.38335486 C6.4759867,1.14336059 6.29543492,1.02304683 6.06170549,1.02304683 C5.83154926,1.02304683 5.6434307,1.17481102 5.49777018,1.4783394 C5.35210967,1.7816567 5.2793845,2.17383732 5.2793845,2.65403695 M0.936052734,2.42100821 C0.936052734,2.68844246 1.02601334,2.91598321 1.20572437,3.10384152 C1.38585577,3.29169984 1.601509,3.38562899 1.85331463,3.38562899 C2.10890365,3.38562899 2.31993274,3.29338845 2.48745284,3.10911844 C2.65455257,2.92484843 2.73820752,2.69203076 2.73820752,2.41024329 C2.73820752,2.13204412 2.65287106,1.90028184 2.48177775,1.71411214 C2.31110483,1.52815352 2.09776367,1.43506867 1.84238484,1.43506867 C1.58343281,1.43506867 1.36777958,1.52899782 1.19500476,1.71685614 C1.02244014,1.90450338 0.936052734,2.13943181 0.936052734,2.42100821 M1.79929623,4.27405107 C1.27067256,4.27405107 0.852397776,4.08007153 0.54510243,3.69169029 C0.237386706,3.30330906 0.0837390329,2.77308424 0.0837390329,2.10143799 L0.0837390329,0.0478722089 L0.849875516,0.0478722089 L0.849875516,1.05576373 C1.04766274,0.860728806 1.22758396,0.725217527 1.38921879,0.649440971 C1.55127399,0.573664415 1.7366601,0.535670598 1.94516693,0.535670598 C2.20411896,0.535670598 2.45865704,0.609547464 2.70857097,0.757934425 C2.9584849,0.905899233 3.14996647,1.09629047 3.28301569,1.32953029 C3.41627509,1.56234795 3.5224202,1.94439689 3.60145102,2.47525493 C3.65525923,2.84738326 3.78305374,3.03334188 3.98462435,3.03334188 C4.09959737,3.03334188 4.19397194,2.96389763 4.26795823,2.82479805 C4.34131396,2.68569846 4.41782251,2.43388389 4.49685333,2.06893217 C4.63011273,1.45849819 4.73436615,1.06589542 4.81003395,0.890701706 C4.88549156,0.71529692 4.99331818,0.557200427 5.13372399,0.416412229 C5.37102662,0.178106569 5.66949405,0.0588482003 6.02933648,0.0588482003 C6.50036854,0.0588482003 6.87639548,0.269291729 7.1569969,0.689967709 C7.43759833,1.11085477 7.57779395,1.67337433 7.57779395,2.37773747 C7.57779395,3.0894883 7.43654739,3.65728478 7.15426446,4.08176014 C6.87177133,4.50623551 6.49322214,4.71836765 6.01861688,4.71836765 C5.34580402,4.71836765 4.91239567,4.30127997 4.71818165,3.46689355 C4.50589143,3.79912836 4.29570309,3.96524577 4.08698607,3.96524577 C3.92871426,3.96524577 3.78494544,3.89390183 3.65525923,3.75121394 C3.52578322,3.60852605 3.4305679,3.41623512 3.3694031,3.17434116 C3.04571306,3.90741074 2.5223441,4.27405107 1.79929623,4.27405107" id="Fill-50" fill="#274E92" mask="url(#mask-4)"></path></g><path d="M165.169904,31.0978333 L165.169904,28.589186 C164.777902,28.6145152 164.475652,28.7318739 164.263572,28.9412621 C164.051281,29.1508613 163.945346,29.4326488 163.945346,29.7866245 C163.945346,30.1406002 164.051281,30.4306197 164.263572,30.6562607 C164.475652,30.8821129 164.777902,31.0292334 165.169904,31.0978333 Z M165.758011,27.6140114 L165.758011,31.1195742 C166.232826,31.094245 166.610535,30.9344599 166.890926,30.6400078 C167.171527,30.3457668 167.311723,29.9654065 167.311723,29.4995601 C167.311723,28.8494437 167.110362,28.2497746 166.707431,27.7005529 L167.667992,27.7005529 C167.869563,28.0040813 168.013121,28.3048656 168.099509,28.602906 C168.185896,28.9007353 168.229195,29.2502784 168.229195,29.6511132 C168.229195,30.2003349 168.115903,30.6446515 167.88932,30.9840629 C167.662527,31.3234744 167.357544,31.5953412 166.974581,31.7994525 C166.591618,32.0035637 166.14812,32.1055138 165.644719,32.1055138 C164.889302,32.1055138 164.275132,31.8906376 163.802208,31.4608853 C163.329284,31.0311331 163.092612,30.472835 163.092612,29.7866245 C163.092612,29.1255321 163.322979,28.5982623 163.783291,28.2046042 C164.243814,27.810946 164.860506,27.6140114 165.633789,27.6140114 L165.758011,27.6140114 Z" id="Fill-53" fill="#274E92"></path><path d="M163.189951,25.5455436 L164.328331,25.5455436 L164.241943,25.491508 C163.475597,25.0146856 163.092633,24.5378632 163.092633,24.0610408 C163.092633,23.6891235 163.279911,23.3007423 163.653836,22.8961081 L164.51708,23.4164123 C164.193179,23.7596232 164.031545,24.0772937 164.031545,24.3700571 C164.031545,24.6879387 164.18267,24.9631828 164.484711,25.1962116 C164.786962,25.4290292 165.144912,25.5455436 165.558353,25.5455436 L168.153548,25.5455436 L168.153548,26.5371822 L163.189951,26.5371822 L163.189951,25.5455436 Z" id="Fill-55" fill="#274E92"></path><path d="M165.169904,21.7216137 L165.169904,19.2129664 C164.777902,19.2382957 164.475652,19.3558654 164.263572,19.5652536 C164.051281,19.7746417 163.945346,20.0564292 163.945346,20.4104049 C163.945346,20.7645917 164.051281,21.0544001 164.263572,21.2800411 C164.475652,21.5058933 164.777902,21.6532249 165.169904,21.7216137 Z M165.758011,18.2377918 L165.758011,21.7433546 C166.232826,21.7180254 166.610535,21.5584514 166.890926,21.2637882 C167.171527,20.9695472 167.311723,20.589398 167.311723,20.1233405 C167.311723,19.4732241 167.110362,18.8737661 166.707431,18.3245444 L167.667992,18.3245444 C167.869563,18.6280728 168.013121,18.9288571 168.099509,19.2266864 C168.185896,19.5247268 168.229195,19.8740589 168.229195,20.2748936 C168.229195,20.8241153 168.115903,21.2684319 167.88932,21.6078434 C167.662527,21.9474659 167.357544,22.2191216 166.974581,22.4232329 C166.591618,22.6273441 166.14812,22.7292942 165.644719,22.7292942 C164.889302,22.7292942 164.275132,22.5146291 163.802208,22.0846658 C163.329284,21.6549135 163.092612,21.0968265 163.092612,20.4104049 C163.092612,19.7495236 163.322979,19.2220427 163.783291,18.8283846 C164.243814,18.4347264 164.860506,18.2377918 165.633789,18.2377918 L165.758011,18.2377918 Z" id="Fill-57" fill="#274E92"></path><path d="M163.189951,16.2400136 L163.821146,16.2400136 C163.335401,15.7992854 163.092633,15.2990334 163.092633,14.7392579 C163.092633,14.4285529 163.172715,14.1395888 163.332879,13.8721545 C163.492832,13.6051424 163.712269,13.4018755 163.991188,13.2627759 C164.269898,13.1236764 164.711294,13.054021 165.315585,13.054021 L168.153548,13.054021 L168.153548,14.0401716 L165.326305,14.0401716 C164.819331,14.0401716 164.456756,14.1178479 164.239211,14.2732004 C164.021666,14.4285529 163.912788,14.6885995 163.912788,15.0533401 C163.912788,15.5193976 164.144836,15.9149554 164.608722,16.2400136 L168.153548,16.2400136 L168.153548,17.2476941 L163.189951,17.2476941 L163.189951,16.2400136 Z" id="Fill-59" fill="#274E92"></path></g><polygon id="Triangle" fill="#FFFFFF" fill-rule="nonzero" transform="translate(166.500000, 128.000000) rotate(-180.000000) translate(-166.500000, -128.000000) " points="166.5 116 185 140 148 140"></polygon></g></g></g></svg> 