<?xml version="1.0" encoding="UTF-8" standalone="no"?>
<!-- Created with Inkscape (http://www.inkscape.org/) -->

<svg
   width="76.854294mm"
   height="69.659492mm"
   viewBox="0 0 76.854294 69.659492"
   version="1.1"
   id="svg1"
   xmlns="http://www.w3.org/2000/svg"
   xmlns:svg="http://www.w3.org/2000/svg">
  <defs
     id="defs1" />
  <g
     id="layer1"
     transform="translate(-2.9017606,-2.5259833)">
    <path
       style="fill:#acceed;fill-opacity:1;stroke:none;stroke-width:0.702273;stroke-opacity:1"
       d="M 28.813404,4.302459 C 35.186615,2.643112 41.987972,2.160312 48.556792,2.79501 c 5.58096,0.539248 11.32669,1.749204 16.1764,4.464537 4.59257,2.571362 8.85117,6.238851 11.39762,10.730531 2.31927,4.09098 2.55668,9.04973 2.92547,13.69778 0.49233,6.20508 1.69478,12.97943 -0.97516,18.64591 -3.68475,7.82022 -11.11204,14.34509 -19.21943,17.91313 -9.30849,4.09664 -20.231487,5.05587 -30.581055,2.60322 -1.706248,-0.40435 -3.289107,-1.2443 -4.835356,-2.07083 -3.448043,-1.84313 -6.944091,-3.76157 -9.82871,-6.39976 -1.512102,-1.38293 -2.688347,-3.11049 -3.7992096,-4.83195 -1.758089,-2.72445 -3.016202,-5.74056 -4.489972,-8.6285 -0.350853,-0.68751 -0.805873,-1.33417 -1.036147,-2.07083 -0.24273,-0.7765 -0.247296,-1.60841 -0.345383,-2.41598 -0.418224,-3.44333 -1.126983,-6.88789 -1.036147,-10.35418 0.0638,-2.43443 0.483062,-4.86758 1.107661,-7.22724 0.492841,-1.86189 1.307993,-3.63263 2.067339,-5.40937 0.949669,-2.22206 1.471755,-4.74446 3.108443,-6.55766 2.5519386,-2.82714 6.4396096,-4.219305 9.8368456,-6.042314 3.162183,-1.696875 6.289255,-3.629298 9.783403,-4.539045 z"
       id="path1" />
  </g>
</svg>
