<?xml version="1.0" encoding="UTF-8" standalone="no"?><!DOCTYPE svg PUBLIC "-//W3C//DTD SVG 1.1//EN" "http://www.w3.org/Graphics/SVG/1.1/DTD/svg11.dtd"><svg width="100%" height="100%" viewBox="0 0 663 1080" version="1.1" xmlns="http://www.w3.org/2000/svg" xmlns:xlink="http://www.w3.org/1999/xlink" xml:space="preserve" xmlns:serif="http://www.serif.com/" style="fill-rule:evenodd;clip-rule:evenodd;stroke-linejoin:round;stroke-miterlimit:2;"><rect id="redpin30" x="0.488" y="0" width="661.795" height="1080" style="fill:none;"/><g><g><clipPath id="_clip1"><path d="M364.65,336.917l229.818,440.609l-515.083,268.656l-229.818,-440.609l515.083,-268.656Z"/></clipPath><g clip-path="url(#_clip1)"><g><clipPath id="_clip2"><path d="M399.322,409.313l-93.818,-40.714l-262.484,604.948l18.531,44.806l57.451,0.026l29.856,-23.368l250.464,-585.698Z"/></clipPath><g clip-path="url(#_clip2)"><path d="M485.306,-112.828l414.318,794.344l-843.989,440.208l-414.318,-794.344l843.989,-440.208Z" style="fill:#0c3f7c;fill-rule:nonzero;"/></g></g></g></g></g><g><clipPath id="_clip3"><rect x="92.624" y="56" width="528" height="542.667"/></clipPath><g clip-path="url(#_clip3)"><g><clipPath id="_clip4"><path d="M461.556,-37.286l254.089,487.156l-465.432,242.76l-254.094,-487.156l465.437,-242.76Z"/></clipPath><g clip-path="url(#_clip4)"><g><clipPath id="_clip5"><path d="M126.369,448.089c69.88,133.984 229.667,188.765 356.995,122.354c127.323,-66.412 173.838,-228.792 103.958,-362.776c-69.885,-133.985 -229.667,-188.761 -356.995,-122.354c-127.323,66.411 -173.843,228.796 -103.958,362.776"/></clipPath><g clip-path="url(#_clip5)"><path d="M485.306,-112.828l414.318,794.344l-843.989,440.208l-414.318,-794.344l843.989,-440.208Z" style="fill:#e03726;fill-rule:nonzero;"/></g></g></g></g></g></g><g><g><clipPath id="_clip6"><path d="M535.322,157.115l119.761,229.614l-136.527,71.209l-119.76,-229.615l136.526,-71.208Z"/></clipPath><g clip-path="url(#_clip6)"><g><clipPath id="_clip7"><path d="M519.077,311.406c4.636,74.594 -29.896,140.292 7.839,137.943c37.734,-2.354 64.562,-65.339 59.807,-140.651c-4.75,-75.307 -39.042,-134.563 -76.776,-132.208c-37.734,2.349 4.495,60.328 9.13,134.916"/></clipPath><g clip-path="url(#_clip7)"><path d="M485.306,-112.828l414.318,794.344l-843.989,440.208l-414.318,-794.344l843.989,-440.208Z" style="fill:#fff;fill-rule:nonzero;"/></g></g></g></g></g></svg>