<svg xmlns="http://www.w3.org/2000/svg" xmlns:xlink="http://www.w3.org/1999/xlink" width="1080" zoomAndPan="magnify" viewBox="0 0 810 809.999993" height="1080" preserveAspectRatio="xMidYMid meet" version="1.0"><defs><clipPath id="ee3bb0ad92"><path d="M 243 276 L 512 276 L 512 772 L 243 772 Z M 243 276 " clip-rule="nonzero"/></clipPath><clipPath id="7a6290ff8c"><path d="M 485.019531 252.6875 L 657.382812 583.144531 L 271.070312 784.636719 L 98.707031 454.179688 Z M 485.019531 252.6875 " clip-rule="nonzero"/></clipPath><clipPath id="60d37c81c7"><path d="M 511.023438 306.984375 L 440.660156 276.449219 L 243.796875 730.160156 L 291.753906 771.890625 L 314.15625 760.695312 Z M 511.023438 306.984375 " clip-rule="nonzero"/></clipPath><clipPath id="9e1f9ab827"><path d="M 281 42 L 677 42 L 677 449 L 281 449 Z M 281 42 " clip-rule="nonzero"/></clipPath><clipPath id="99cdc7d406"><path d="M 557.699219 -27.964844 L 748.265625 337.402344 L 399.191406 519.472656 L 208.621094 154.105469 Z M 557.699219 -27.964844 " clip-rule="nonzero"/></clipPath><clipPath id="d683ec5ccf"><path d="M 306.308594 336.066406 C 358.71875 436.554688 478.558594 477.640625 574.054688 427.832031 C 669.546875 378.023438 704.433594 256.238281 652.023438 155.75 C 599.609375 55.261719 479.773438 14.179688 384.277344 63.984375 C 288.785156 113.792969 253.894531 235.582031 306.308594 336.066406 " clip-rule="nonzero"/></clipPath><clipPath id="654bf0ffe6"><path d="M 582 132 L 652 132 L 652 338 L 582 338 Z M 582 132 " clip-rule="nonzero"/></clipPath><clipPath id="f468a0eee1"><path d="M 613.023438 117.835938 L 702.84375 290.046875 L 600.449219 343.453125 L 510.628906 171.242188 Z M 613.023438 117.835938 " clip-rule="nonzero"/></clipPath><clipPath id="2a8cb0cf06"><path d="M 600.839844 233.554688 C 604.316406 289.5 578.417969 338.773438 606.71875 337.011719 C 635.019531 335.246094 655.140625 288.007812 651.574219 231.523438 C 648.011719 175.042969 622.292969 130.601562 593.992188 132.367188 C 565.691406 134.128906 597.363281 177.613281 600.839844 233.554688 " clip-rule="nonzero"/></clipPath></defs><g clip-path="url(#ee3bb0ad92)"><g clip-path="url(#7a6290ff8c)"><g clip-path="url(#60d37c81c7)"><path fill="#0c3f7c" d="M 575.511719 -84.621094 L 886.25 511.136719 L 253.257812 841.292969 L -57.480469 245.535156 Z M 575.511719 -84.621094 " fill-opacity="1" fill-rule="nonzero"/></g></g></g><g clip-path="url(#9e1f9ab827)"><g clip-path="url(#99cdc7d406)"><g clip-path="url(#d683ec5ccf)"><path fill="#e03726" d="M 575.511719 -84.621094 L 886.25 511.136719 L 253.257812 841.292969 L -57.480469 245.535156 Z M 575.511719 -84.621094 " fill-opacity="1" fill-rule="nonzero"/></g></g></g><g clip-path="url(#654bf0ffe6)"><g clip-path="url(#f468a0eee1)"><g clip-path="url(#2a8cb0cf06)"><path fill="#ffffff" d="M 575.511719 -84.621094 L 886.25 511.136719 L 253.257812 841.292969 L -57.480469 245.535156 Z M 575.511719 -84.621094 " fill-opacity="1" fill-rule="nonzero"/></g></g></g></svg>