<?xml version="1.0" encoding="UTF-8" standalone="no"?>
<!DOCTYPE svg PUBLIC "-//W3C//DTD SVG 1.1//EN" "http://www.w3.org/Graphics/SVG/1.1/DTD/svg11.dtd">
<svg width="100%" height="100%" viewBox="0 0 318 318" version="1.1" xmlns="http://www.w3.org/2000/svg" xmlns:xlink="http://www.w3.org/1999/xlink" xml:space="preserve" xmlns:serif="http://www.serif.com/" style="fill-rule:evenodd;clip-rule:evenodd;stroke-linejoin:round;stroke-miterlimit:2;">
    <g transform="matrix(1,0,0,1,-312.554,-1050.69)">
        <path d="M364.788,1364.62L578.524,1364.62C591.711,1364.62 603.699,1359.14 612.434,1350.4C620.997,1341.84 626.477,1329.85 626.477,1316.66L626.477,1102.93C626.477,1089.74 620.997,1077.75 612.434,1069.19C603.699,1060.46 591.711,1055.15 578.524,1055.15L364.788,1055.15C351.601,1055.15 339.784,1060.46 331.05,1069.19C322.315,1077.75 317.006,1089.74 317.006,1102.93L317.006,1316.66C317.006,1329.85 322.315,1341.84 331.05,1350.4C339.784,1359.14 351.601,1364.62 364.788,1364.62ZM578.524,1368.9L364.788,1368.9C350.402,1368.9 337.387,1363.08 327.967,1353.49C318.548,1344.07 312.554,1331.05 312.554,1316.66L312.554,1102.93C312.554,1088.54 318.548,1075.53 327.967,1066.11C337.387,1056.52 350.402,1050.69 364.788,1050.69L578.524,1050.69C592.91,1050.69 605.926,1056.52 615.516,1066.11C624.936,1075.53 630.759,1088.54 630.759,1102.93L630.759,1316.66C630.759,1331.05 624.936,1344.07 615.516,1353.49C605.926,1363.08 592.91,1368.9 578.524,1368.9Z" style="fill:rgb(35,31,32);fill-rule:nonzero;"/>
    </g>
    <g transform="matrix(1,0,0,1,-312.554,-1050.69)">
        <path d="M442.37,1328.31L485.015,1328.31L485.015,1229.49L516.698,1229.49L523.034,1189.76L485.015,1189.76L485.015,1159.62C485.015,1148.31 495.804,1141.98 505.909,1141.98L524.405,1141.98L524.405,1108.92L491.351,1107.55C459.839,1105.67 442.37,1130.33 442.37,1159.96L442.37,1189.76L406.405,1189.76L406.405,1229.49L442.37,1229.49L442.37,1328.31Z" style="fill:rgb(35,31,32);"/>
    </g>
</svg>
