<svg xmlns="http://www.w3.org/2000/svg" xmlns:xlink="http://www.w3.org/1999/xlink" width="1080" zoomAndPan="magnify" viewBox="0 0 810 809.999993" height="1080" preserveAspectRatio="xMidYMid meet" version="1.0"><path fill="#f9f9f9" d="M 93.554688 8.101562 C 94.769531 8.910156 95.984375 9.71875 97.199219 10.664062 C 103.003906 14.851562 105.570312 20.519531 103.679688 27.40625 C 101.65625 34.558594 96.660156 38.746094 89.101562 38.878906 C 79.648438 39.148438 70.199219 38.878906 60.613281 39.015625 C 48.601562 39.148438 42.796875 44.953125 42.796875 57.105469 C 42.796875 108.539062 42.796875 159.976562 42.796875 211.410156 C 42.796875 389.339844 42.796875 567.136719 42.796875 745.066406 C 42.796875 762.480469 47.25 767.070312 64.53125 767.070312 C 179.28125 767.070312 294.03125 767.070312 408.914062 767.070312 C 411.613281 767.070312 414.449219 767.070312 417.691406 767.070312 C 417.691406 680.671875 417.691406 594.945312 417.691406 508.140625 C 414.855469 508.140625 412.15625 508.140625 409.453125 508.140625 C 386.371094 508.140625 363.285156 508.140625 340.335938 508.140625 C 326.296875 508.140625 321.164062 503.011719 321.164062 489.238281 C 321.164062 451.980469 321.164062 414.71875 321.164062 377.460938 C 321.164062 364.5 326.835938 358.695312 339.796875 358.558594 C 362.878906 358.425781 385.964844 358.558594 408.914062 358.558594 C 411.613281 358.558594 414.449219 358.558594 418.09375 358.558594 C 418.09375 354.914062 418.09375 351.808594 418.09375 348.839844 C 418.5 317.519531 417.421875 286.066406 419.578125 254.878906 C 424.171875 192.644531 475.605469 137.566406 536.894531 127.171875 C 547.019531 125.414062 557.28125 124.605469 567.40625 124.46875 C 599.398438 124.066406 631.125 124.199219 662.851562 124.199219 C 677.835938 124.199219 683.371094 129.734375 683.371094 144.585938 C 683.371094 181.035156 683.371094 217.621094 683.371094 254.070312 C 683.371094 268.515625 678.238281 273.644531 663.929688 273.78125 C 634.769531 273.78125 605.476562 273.78125 576.316406 273.78125 C 573.613281 273.78125 570.78125 273.78125 567.539062 273.78125 C 567.539062 302.265625 567.539062 329.804688 567.539062 358.425781 C 570.511719 358.425781 573.210938 358.425781 575.910156 358.425781 C 604.800781 358.425781 633.824219 358.425781 662.714844 358.425781 C 678.375 358.425781 684.179688 364.636719 682.15625 380.296875 C 677.566406 417.421875 672.703125 454.679688 667.710938 491.804688 C 666.089844 503.953125 660.960938 508.003906 648.539062 508.003906 C 624.511719 508.003906 600.34375 508.003906 576.316406 508.003906 C 573.480469 508.003906 570.78125 508.003906 567.40625 508.003906 C 567.40625 594.40625 567.40625 680.128906 567.40625 766.933594 C 576.046875 766.933594 584.953125 766.933594 593.730469 766.933594 C 605.609375 766.933594 611.550781 770.308594 613.84375 778.410156 C 615.871094 785.566406 612.765625 791.503906 603.585938 797.714844 C 584.683594 797.714844 565.648438 797.714844 546.75 797.714844 C 539.460938 793.261719 535.949219 787.183594 535.949219 778.140625 C 536.21875 684.316406 536.085938 590.488281 536.085938 496.664062 C 536.085938 482.761719 541.753906 477.089844 555.660156 476.953125 C 580.5 476.953125 605.339844 476.953125 630.179688 476.953125 C 632.878906 476.953125 635.578125 476.953125 638.414062 476.953125 C 642.328125 447.253906 645.976562 418.636719 649.890625 389.203125 C 646.109375 389.203125 643.273438 389.203125 640.574219 389.203125 C 612.628906 389.203125 584.683594 389.203125 556.738281 389.203125 C 540.808594 389.203125 535.949219 384.34375 535.949219 368.683594 C 535.949219 337.90625 535.949219 306.988281 535.949219 276.074219 C 535.949219 253.664062 547.019531 242.730469 569.566406 242.730469 C 594.136719 242.730469 618.703125 242.730469 643.410156 242.730469 C 646.109375 242.730469 648.808594 242.460938 652.050781 242.324219 C 652.050781 214.378906 652.050781 187.109375 652.050781 159.976562 C 652.050781 154.710938 648.808594 155.113281 645.433594 155.113281 C 621.136719 155.113281 596.699219 154.980469 572.398438 155.25 C 563.21875 155.386719 553.769531 155.386719 544.859375 157.003906 C 486.539062 168.074219 448.46875 214.378906 448.335938 273.914062 C 448.199219 306.316406 448.335938 338.714844 448.335938 371.113281 C 448.335938 384.074219 443.070312 389.203125 430.109375 389.339844 C 411.613281 389.476562 393.253906 389.339844 374.761719 389.339844 C 367.199219 389.339844 359.503906 389.339844 351.945312 389.339844 C 351.945312 419.175781 351.945312 448.066406 351.945312 477.089844 C 377.730469 477.089844 402.703125 477.089844 427.816406 477.089844 C 443.203125 477.089844 448.335938 482.085938 448.335938 497.203125 C 448.335938 590.761719 448.199219 684.316406 448.46875 777.871094 C 448.46875 787.050781 445.90625 793.800781 437.398438 797.851562 C 308.339844 797.851562 179.144531 797.851562 50.085938 797.851562 C 39.554688 794.609375 29.296875 790.558594 22.679688 781.246094 C 18.226562 775.035156 15.253906 767.609375 11.746094 760.859375 C 12.148438 522.316406 12.148438 283.636719 12.148438 45.089844 C 14.445312 40.09375 16.46875 34.828125 19.035156 30.105469 C 25.648438 18.226562 37.125 12.824219 49.003906 8.101562 C 63.855469 8.101562 78.703125 8.101562 93.554688 8.101562 Z M 93.554688 8.101562 " fill-opacity="1" fill-rule="nonzero"/><path fill="#f9f9f9" d="M 717.796875 797.851562 C 714.285156 793.394531 709.019531 789.480469 707.535156 784.484375 C 704.835938 775.84375 712.664062 767.339844 722.25 767.070312 C 731.699219 766.800781 741.148438 767.070312 750.734375 766.933594 C 762.75 766.800781 768.554688 760.996094 768.554688 748.84375 C 768.554688 714.417969 768.554688 679.996094 768.554688 645.433594 C 768.554688 450.628906 768.554688 255.691406 768.554688 60.886719 C 768.554688 43.46875 764.101562 38.878906 746.820312 38.878906 C 570.511719 38.878906 394.335938 38.878906 218.023438 38.878906 C 215.460938 38.878906 212.894531 39.148438 210.332031 38.746094 C 203.582031 37.800781 198.988281 33.886719 197.234375 27.40625 C 195.480469 21.058594 197.640625 15.796875 202.5 11.609375 C 203.984375 10.261719 205.738281 9.316406 207.496094 8.101562 C 392.445312 8.101562 577.394531 8.101562 762.480469 8.101562 C 781.648438 14.308594 794.476562 26.730469 799.335938 46.710938 C 799.335938 284.308594 799.335938 521.773438 799.335938 759.375 C 794.070312 779.761719 781.246094 792.585938 760.859375 797.984375 C 746.414062 797.851562 732.105469 797.851562 717.796875 797.851562 Z M 717.796875 797.851562 " fill-opacity="1" fill-rule="nonzero"/><path fill="#f9f9f9" d="M 155.113281 8.101562 C 156.601562 9.046875 158.085938 9.988281 159.433594 11.070312 C 167.128906 17.011719 168.074219 27 161.730469 33.886719 C 155.65625 40.5 145.394531 40.5 139.320312 33.886719 C 132.976562 27 133.921875 16.875 141.613281 11.070312 C 142.964844 9.988281 144.449219 9.046875 145.933594 8.101562 C 148.90625 8.101562 152.011719 8.101562 155.113281 8.101562 Z M 155.113281 8.101562 " fill-opacity="1" fill-rule="nonzero"/><path fill="#f9f9f9" d="M 656.234375 797.851562 C 655.019531 797.039062 653.804688 796.230469 652.589844 795.285156 C 646.648438 790.964844 643.949219 785.160156 646.246094 777.871094 C 648.539062 770.851562 653.671875 766.933594 661.230469 767.070312 C 668.386719 767.203125 673.246094 771.121094 675.40625 777.871094 C 677.699219 785.023438 675.136719 790.828125 669.058594 795.285156 C 667.84375 796.230469 666.628906 797.039062 665.414062 797.851562 C 662.445312 797.851562 659.339844 797.851562 656.234375 797.851562 Z M 656.234375 797.851562 " fill-opacity="1" fill-rule="nonzero"/></svg>