<svg xmlns="http://www.w3.org/2000/svg" xmlns:xlink="http://www.w3.org/1999/xlink" width="1080" zoomAndPan="magnify" viewBox="0 0 810 809.999993" height="1080" preserveAspectRatio="xMidYMid meet" version="1.0"><path fill="#f9f9f9" d="M 810 221.503906 L 810 588.546875 C 809.46875 590.519531 809.054688 592.519531 808.761719 594.546875 C 808.265625 600.410156 807.546875 606.25 806.605469 612.058594 C 805.660156 617.867188 804.5 623.632812 803.117188 629.355469 C 801.734375 635.078125 800.136719 640.738281 798.320312 646.335938 C 796.507812 651.9375 794.480469 657.457031 792.246094 662.902344 C 790.007812 668.347656 787.570312 673.699219 784.921875 678.957031 C 782.277344 684.214844 779.4375 689.363281 776.398438 694.40625 C 773.359375 699.445312 770.132812 704.363281 766.722656 709.160156 C 763.308594 713.953125 759.714844 718.613281 755.945312 723.132812 C 752.15625 727.851562 748.1875 732.410156 744.035156 736.8125 C 739.886719 741.214844 735.566406 745.445312 731.078125 749.503906 C 726.59375 753.566406 721.953125 757.441406 717.15625 761.132812 C 712.363281 764.824219 707.429688 768.316406 702.359375 771.617188 C 697.285156 774.917969 692.089844 778.007812 686.773438 780.894531 C 681.453125 783.78125 676.03125 786.453125 670.5 788.910156 C 664.972656 791.367188 659.351562 793.597656 653.644531 795.609375 C 647.9375 797.621094 642.160156 799.398438 636.3125 800.953125 C 620.691406 805.09375 604.453125 807.09375 588.6875 810.09375 L 221.453125 810.09375 C 219.980469 809.589844 218.472656 809.222656 216.929688 809 C 211.078125 808.53125 205.25 807.839844 199.449219 806.925781 C 193.648438 806.011719 187.890625 804.882812 182.175781 803.53125 C 176.460938 802.179688 170.804688 800.613281 165.207031 798.832031 C 159.613281 797.050781 154.09375 795.058594 148.648438 792.855469 C 143.207031 790.652344 137.851562 788.246094 132.59375 785.640625 C 127.332031 783.03125 122.175781 780.222656 117.128906 777.222656 C 112.082031 774.222656 107.15625 771.03125 102.351562 767.65625 C 97.546875 764.28125 92.878906 760.726562 88.34375 756.992188 C 83.578125 753.214844 78.972656 749.25 74.523438 745.105469 C 70.078125 740.957031 65.800781 736.640625 61.699219 732.152344 C 57.59375 727.664062 53.675781 723.019531 49.945312 718.21875 C 46.210938 713.417969 42.675781 708.472656 39.339844 703.390625 C 36 698.308594 32.871094 693.101562 29.945312 687.765625 C 27.023438 682.433594 24.320312 676.992188 21.832031 671.445312 C 19.34375 665.894531 17.078125 660.257812 15.039062 654.527344 C 13.003906 648.796875 11.195312 642.996094 9.621094 637.121094 C 5.332031 621.261719 3.285156 604.785156 0.09375 588.640625 L 0.09375 221.503906 C 0.621094 219.527344 1.035156 217.523438 1.332031 215.5 C 1.828125 209.636719 2.546875 203.800781 3.488281 197.992188 C 4.429688 192.183594 5.589844 186.417969 6.972656 180.695312 C 8.351562 174.976562 9.949219 169.316406 11.761719 163.714844 C 13.574219 158.117188 15.597656 152.597656 17.832031 147.152344 C 20.066406 141.707031 22.503906 136.355469 25.148438 131.097656 C 27.789062 125.839844 30.628906 120.6875 33.664062 115.648438 C 36.699219 110.605469 39.925781 105.6875 43.335938 100.890625 C 46.746094 96.09375 50.335938 91.4375 54.101562 86.914062 C 57.890625 82.195312 61.859375 77.636719 66.011719 73.234375 C 70.160156 68.832031 74.480469 64.601562 78.96875 60.542969 C 83.453125 56.480469 88.09375 52.605469 92.890625 48.914062 C 97.683594 45.226562 102.617188 41.730469 107.6875 38.429688 C 112.761719 35.132812 117.957031 32.039062 123.273438 29.152344 C 128.589844 26.265625 134.015625 23.59375 139.546875 21.136719 C 145.074219 18.679688 150.695312 16.449219 156.402344 14.4375 C 162.109375 12.429688 167.886719 10.648438 173.734375 9.097656 C 189.402344 4.90625 205.59375 2.90625 221.359375 -0.09375 L 588.402344 -0.09375 C 589.960938 0.410156 591.546875 0.789062 593.164062 1.046875 C 599.019531 1.511719 604.847656 2.203125 610.648438 3.113281 C 616.449219 4.023438 622.210938 5.152344 627.925781 6.5 C 633.640625 7.851562 639.296875 9.414062 644.894531 11.195312 C 650.488281 12.976562 656.007812 14.96875 661.453125 17.171875 C 666.898438 19.371094 672.25 21.777344 677.511719 24.390625 C 682.773438 27 687.925781 29.804688 692.972656 32.808594 C 698.019531 35.8125 702.945312 39.003906 707.75 42.382812 C 712.550781 45.761719 717.21875 49.320312 721.75 53.054688 C 726.519531 56.828125 731.132812 60.789062 735.582031 64.933594 C 740.035156 69.078125 744.316406 73.394531 748.425781 77.878906 C 752.53125 82.367188 756.453125 87.011719 760.1875 91.8125 C 763.925781 96.613281 767.460938 101.554688 770.804688 106.636719 C 774.144531 111.722656 777.277344 116.929688 780.199219 122.261719 C 783.125 127.597656 785.828125 133.039062 788.316406 138.589844 C 790.808594 144.140625 793.070312 149.78125 795.105469 155.515625 C 797.144531 161.246094 798.949219 167.050781 800.523438 172.925781 C 804.855469 188.878906 806.902344 205.308594 810 221.503906 Z M 778.328125 405.046875 C 778.328125 350.183594 778.328125 295.335938 778.328125 240.503906 C 778.375 237.082031 778.335938 233.65625 778.210938 230.238281 C 778.085938 226.816406 777.878906 223.398438 777.582031 219.988281 C 777.289062 216.574219 776.910156 213.175781 776.445312 209.78125 C 775.980469 206.390625 775.429688 203.011719 774.796875 199.644531 C 774.164062 196.28125 773.449219 192.933594 772.648438 189.605469 C 771.851562 186.273438 770.96875 182.96875 770.003906 179.683594 C 769.039062 176.398438 767.992188 173.136719 766.867188 169.90625 C 765.738281 166.671875 764.53125 163.46875 763.246094 160.296875 C 761.960938 157.121094 760.59375 153.984375 759.152344 150.878906 C 757.707031 147.773438 756.1875 144.707031 754.59375 141.675781 C 752.996094 138.648438 751.324219 135.660156 749.582031 132.714844 C 747.835938 129.769531 746.019531 126.867188 744.128906 124.011719 C 742.242188 121.15625 740.28125 118.351562 738.25 115.59375 C 736.222656 112.835938 734.125 110.128906 731.960938 107.476562 C 729.796875 104.824219 727.566406 102.226562 725.273438 99.683594 C 722.980469 97.140625 720.625 94.65625 718.207031 92.234375 C 715.789062 89.808594 713.3125 87.445312 710.777344 85.144531 C 708.242188 82.84375 705.652344 80.605469 703.003906 78.433594 C 700.359375 76.261719 697.660156 74.15625 694.90625 72.121094 C 692.15625 70.082031 689.355469 68.113281 686.503906 66.214844 C 683.65625 64.316406 680.757812 62.492188 677.820312 60.738281 C 674.878906 58.984375 671.894531 57.304688 668.871094 55.699219 C 665.847656 54.097656 662.785156 52.566406 659.683594 51.113281 C 656.582031 49.664062 653.449219 48.289062 650.277344 46.992188 C 647.109375 45.695312 643.910156 44.480469 640.679688 43.34375 C 637.449219 42.207031 634.195312 41.152344 630.910156 40.175781 C 627.628906 39.203125 624.324219 38.3125 620.996094 37.5 C 617.671875 36.691406 614.324219 35.964844 610.960938 35.324219 C 607.597656 34.679688 604.222656 34.121094 600.832031 33.648438 C 597.441406 33.171875 594.039062 32.78125 590.628906 32.476562 C 587.21875 32.171875 583.804688 31.953125 580.382812 31.820312 C 576.960938 31.683594 573.539062 31.632812 570.113281 31.671875 C 459.910156 31.671875 349.707031 31.671875 239.503906 31.671875 C 228.414062 31.542969 217.382812 32.324219 206.421875 34.011719 C 195.457031 35.695312 184.703125 38.265625 174.164062 41.71875 C 171.578125 42.554688 169.011719 43.4375 166.460938 44.375 C 163.910156 45.308594 161.378906 46.296875 158.867188 47.332031 C 156.359375 48.367188 153.867188 49.453125 151.402344 50.585938 C 148.933594 51.722656 146.488281 52.90625 144.066406 54.136719 C 141.644531 55.367188 139.25 56.648438 136.878906 57.972656 C 134.507812 59.300781 132.167969 60.671875 129.851562 62.09375 C 127.535156 63.511719 125.246094 64.976562 122.988281 66.488281 C 120.730469 67.996094 118.503906 69.550781 116.308594 71.148438 C 114.113281 72.746094 111.949219 74.386719 109.816406 76.074219 C 107.683594 77.757812 105.589844 79.480469 103.523438 81.25 C 101.460938 83.015625 99.433594 84.824219 97.445312 86.671875 C 95.453125 88.519531 93.5 90.402344 91.582031 92.328125 C 89.664062 94.253906 87.789062 96.214844 85.949219 98.214844 C 84.109375 100.214844 82.3125 102.25 80.554688 104.320312 C 78.792969 106.390625 77.078125 108.496094 75.402344 110.632812 C 73.730469 112.769531 72.097656 114.941406 70.507812 117.144531 C 68.917969 119.347656 67.375 121.582031 65.875 123.847656 C 64.375 126.113281 62.917969 128.40625 61.511719 130.726562 C 60.101562 133.046875 58.738281 135.398438 57.421875 137.773438 C 56.105469 140.148438 54.835938 142.550781 53.613281 144.976562 C 52.394531 147.402344 51.222656 149.851562 50.097656 152.324219 C 48.972656 154.796875 47.898438 157.292969 46.875 159.808594 C 45.847656 162.324219 44.871094 164.859375 43.949219 167.410156 C 43.023438 169.964844 42.148438 172.539062 41.328125 175.125 C 40.503906 177.714844 39.730469 180.320312 39.011719 182.9375 C 38.292969 185.558594 37.625 188.1875 37.007812 190.835938 C 36.394531 193.480469 35.832031 196.136719 35.320312 198.804688 C 34.8125 201.472656 34.355469 204.152344 33.949219 206.835938 C 33.546875 209.523438 33.195312 212.214844 32.898438 214.914062 C 32.601562 217.617188 32.355469 220.320312 32.167969 223.03125 C 31.976562 225.738281 31.839844 228.453125 31.757812 231.167969 C 31.675781 233.882812 31.644531 236.597656 31.671875 239.3125 C 31.449219 349.804688 31.449219 460.277344 31.671875 570.734375 C 31.644531 574.132812 31.703125 577.527344 31.84375 580.925781 C 31.988281 584.320312 32.210938 587.710938 32.523438 591.09375 C 32.832031 594.480469 33.226562 597.855469 33.703125 601.21875 C 34.179688 604.585938 34.738281 607.9375 35.382812 611.273438 C 36.023438 614.609375 36.75 617.929688 37.558594 621.230469 C 38.363281 624.53125 39.253906 627.8125 40.222656 631.070312 C 41.191406 634.328125 42.242188 637.558594 43.371094 640.765625 C 44.5 643.96875 45.707031 647.144531 46.992188 650.289062 C 48.28125 653.4375 49.644531 656.546875 51.082031 659.625 C 52.523438 662.703125 54.039062 665.746094 55.628906 668.75 C 57.222656 671.753906 58.886719 674.714844 60.625 677.636719 C 62.359375 680.554688 64.167969 683.433594 66.050781 686.265625 C 67.929688 689.09375 69.878906 691.878906 71.894531 694.613281 C 73.914062 697.347656 75.996094 700.03125 78.148438 702.664062 C 80.296875 705.296875 82.511719 707.871094 84.789062 710.394531 C 87.066406 712.917969 89.40625 715.382812 91.804688 717.789062 C 94.207031 720.195312 96.664062 722.539062 99.179688 724.824219 C 101.695312 727.109375 104.265625 729.332031 106.894531 731.488281 C 109.519531 733.644531 112.195312 735.738281 114.925781 737.761719 C 117.65625 739.789062 120.433594 741.746094 123.257812 743.632812 C 126.085938 745.519531 128.957031 747.335938 131.875 749.082031 C 134.789062 750.828125 137.746094 752.5 140.746094 754.097656 C 143.746094 755.699219 146.78125 757.222656 149.855469 758.671875 C 152.929688 760.121094 156.039062 761.492188 159.179688 762.789062 C 162.324219 764.082031 165.496094 765.296875 168.695312 766.4375 C 171.898438 767.574219 175.128906 768.632812 178.382812 769.613281 C 181.636719 770.589844 184.914062 771.488281 188.214844 772.304688 C 191.511719 773.121094 194.832031 773.851562 198.164062 774.503906 C 201.5 775.15625 204.851562 775.726562 208.214844 776.210938 C 211.578125 776.699219 214.953125 777.101562 218.335938 777.421875 C 221.71875 777.738281 225.109375 777.976562 228.503906 778.128906 C 231.898438 778.277344 235.296875 778.347656 238.695312 778.328125 C 349.820312 778.648438 460.816406 778.648438 571.6875 778.328125 C 576.957031 778.402344 582.222656 778.265625 587.480469 777.921875 C 592.742188 777.574219 597.980469 777.019531 603.195312 776.257812 C 608.410156 775.492188 613.585938 774.523438 618.726562 773.347656 C 623.863281 772.171875 628.945312 770.792969 633.976562 769.210938 C 639.003906 767.628906 643.960938 765.851562 648.847656 763.875 C 653.734375 761.898438 658.535156 759.730469 663.246094 757.371094 C 667.960938 755.015625 672.574219 752.472656 677.085938 749.746094 C 681.597656 747.019531 685.992188 744.117188 690.269531 741.039062 C 749.136719 698.558594 778.042969 640.410156 778.328125 568.019531 C 778.519531 513.679688 778.328125 459.339844 778.328125 405.046875 Z M 778.328125 405.046875 " fill-opacity="1" fill-rule="nonzero"/><path fill="#f9f9f9" d="M 69.628906 404.523438 C 69.628906 349.945312 69.628906 295.367188 69.628906 240.789062 C 69.628906 165.304688 112.773438 103.296875 183.925781 78.867188 C 201.230469 73.058594 219.011719 70.105469 237.265625 70.007812 C 349.039062 69.199219 460.863281 69.339844 572.636719 69.675781 C 575.015625 69.675781 577.394531 69.726562 579.769531 69.832031 C 582.144531 69.933594 584.515625 70.085938 586.882812 70.289062 C 589.253906 70.492188 591.617188 70.746094 593.972656 71.050781 C 596.332031 71.355469 598.683594 71.710938 601.023438 72.113281 C 603.367188 72.519531 605.703125 72.972656 608.023438 73.476562 C 610.347656 73.980469 612.660156 74.53125 614.960938 75.132812 C 617.261719 75.734375 619.546875 76.386719 621.820312 77.085938 C 624.089844 77.785156 626.347656 78.53125 628.585938 79.328125 C 630.828125 80.121094 633.050781 80.964844 635.253906 81.855469 C 637.460938 82.746094 639.644531 83.683594 641.808594 84.664062 C 643.976562 85.648438 646.117188 86.675781 648.238281 87.75 C 650.359375 88.824219 652.457031 89.945312 654.53125 91.105469 C 656.601562 92.269531 658.652344 93.476562 660.671875 94.726562 C 662.695312 95.980469 664.6875 97.273438 666.65625 98.605469 C 668.625 99.941406 670.5625 101.320312 672.46875 102.738281 C 674.378906 104.15625 676.253906 105.613281 678.101562 107.113281 C 679.945312 108.609375 681.761719 110.144531 683.542969 111.722656 C 685.320312 113.296875 687.070312 114.910156 688.78125 116.558594 C 690.492188 118.207031 692.167969 119.894531 693.808594 121.613281 C 695.449219 123.335938 697.054688 125.089844 698.621094 126.878906 C 700.183594 128.667969 701.710938 130.488281 703.199219 132.34375 C 704.6875 134.195312 706.136719 136.082031 707.542969 137.996094 C 708.953125 139.914062 710.320312 141.859375 711.644531 143.832031 C 712.96875 145.804688 714.253906 147.808594 715.492188 149.835938 C 716.730469 151.863281 717.929688 153.917969 719.082031 155.996094 C 720.234375 158.078125 721.339844 160.179688 722.402344 162.308594 C 723.46875 164.433594 724.484375 166.582031 725.457031 168.75 C 726.425781 170.921875 727.351562 173.109375 728.230469 175.320312 C 729.109375 177.53125 729.941406 179.757812 730.722656 182 C 731.507812 184.246094 732.242188 186.507812 732.929688 188.78125 C 733.617188 191.058594 734.257812 193.347656 734.847656 195.652344 C 735.4375 197.953125 735.976562 200.269531 736.46875 202.59375 C 738.902344 214.503906 740.09375 226.539062 740.039062 238.695312 C 740.292969 349.4375 740.292969 460.164062 740.039062 570.875 C 740.0625 573.269531 740.039062 575.664062 739.960938 578.058594 C 739.882812 580.449219 739.753906 582.839844 739.574219 585.226562 C 739.394531 587.613281 739.160156 589.996094 738.878906 592.375 C 738.597656 594.753906 738.265625 597.125 737.882812 599.488281 C 737.496094 601.851562 737.0625 604.203125 736.578125 606.546875 C 736.09375 608.894531 735.558594 611.226562 734.972656 613.546875 C 734.390625 615.871094 733.753906 618.179688 733.074219 620.472656 C 732.390625 622.765625 731.65625 625.046875 730.875 627.308594 C 730.09375 629.574219 729.265625 631.820312 728.386719 634.046875 C 727.511719 636.273438 726.585938 638.480469 725.613281 640.667969 C 724.640625 642.859375 723.625 645.023438 722.558594 647.167969 C 721.496094 649.3125 720.382812 651.433594 719.226562 653.53125 C 718.074219 655.628906 716.871094 657.699219 715.628906 659.742188 C 714.382812 661.789062 713.097656 663.808594 711.765625 665.796875 C 710.433594 667.789062 709.0625 669.75 707.648438 671.679688 C 706.230469 673.613281 704.777344 675.511719 703.28125 677.382812 C 701.785156 679.25 700.25 681.085938 698.671875 682.890625 C 697.097656 684.695312 695.484375 686.460938 693.835938 688.195312 C 692.183594 689.929688 690.496094 691.628906 688.773438 693.289062 C 687.050781 694.953125 685.292969 696.578125 683.5 698.164062 C 681.707031 699.75 679.878906 701.296875 678.019531 702.804688 C 676.160156 704.3125 674.269531 705.78125 672.347656 707.210938 C 670.425781 708.636719 668.472656 710.023438 666.492188 711.367188 C 664.511719 712.710938 662.5 714.011719 660.464844 715.269531 C 658.425781 716.527344 656.363281 717.738281 654.273438 718.90625 C 652.183594 720.078125 650.070312 721.199219 647.933594 722.28125 C 645.796875 723.359375 643.636719 724.390625 641.453125 725.375 C 639.273438 726.363281 637.070312 727.300781 634.847656 728.195312 C 632.625 729.085938 630.386719 729.929688 628.128906 730.726562 C 625.871094 731.519531 623.597656 732.269531 621.304688 732.964844 C 619.015625 733.664062 616.710938 734.3125 614.394531 734.914062 C 612.074219 735.511719 609.746094 736.0625 607.40625 736.5625 C 596.8125 738.851562 586.09375 740.042969 575.257812 740.132812 C 543.398438 740.609375 511.488281 740.371094 479.578125 740.132812 C 467.722656 740.132812 460.863281 733.417969 461.53125 723.085938 C 462.054688 714.082031 468.769531 708.796875 479.722656 708.558594 C 510.058594 708.558594 540.347656 708.558594 570.6875 708.558594 C 572.890625 708.578125 575.089844 708.542969 577.292969 708.457031 C 579.496094 708.371094 581.691406 708.230469 583.886719 708.035156 C 586.082031 707.839844 588.269531 707.59375 590.453125 707.292969 C 592.636719 706.992188 594.8125 706.640625 596.976562 706.234375 C 599.140625 705.832031 601.296875 705.371094 603.441406 704.863281 C 605.582031 704.351562 607.714844 703.792969 609.828125 703.179688 C 611.945312 702.566406 614.046875 701.902344 616.128906 701.1875 C 618.214844 700.472656 620.28125 699.707031 622.328125 698.890625 C 624.375 698.074219 626.398438 697.210938 628.40625 696.296875 C 630.410156 695.386719 632.390625 694.421875 634.351562 693.414062 C 636.308594 692.40625 638.242188 691.347656 640.148438 690.246094 C 642.054688 689.140625 643.9375 687.992188 645.789062 686.800781 C 647.640625 685.605469 649.460938 684.367188 651.253906 683.085938 C 653.042969 681.800781 654.804688 680.476562 656.53125 679.109375 C 658.257812 677.742188 659.949219 676.332031 661.609375 674.882812 C 663.269531 673.433594 664.890625 671.941406 666.480469 670.414062 C 668.066406 668.886719 669.613281 667.320312 671.125 665.714844 C 672.636719 664.113281 674.109375 662.472656 675.539062 660.796875 C 676.96875 659.125 678.359375 657.414062 679.707031 655.671875 C 681.058594 653.929688 682.363281 652.15625 683.625 650.351562 C 684.886719 648.546875 686.105469 646.710938 687.28125 644.84375 C 688.453125 642.980469 689.582031 641.089844 690.664062 639.167969 C 691.746094 637.25 692.78125 635.304688 693.769531 633.335938 C 694.753906 631.367188 695.695312 629.375 696.585938 627.359375 C 697.476562 625.34375 698.320312 623.308594 699.109375 621.25 C 699.902344 619.195312 700.644531 617.121094 701.335938 615.03125 C 702.03125 612.9375 702.671875 610.832031 703.261719 608.707031 C 703.847656 606.585938 704.386719 604.449219 704.875 602.300781 C 705.359375 600.152344 705.792969 597.992188 706.175781 595.820312 C 706.558594 593.652344 706.886719 591.472656 707.160156 589.289062 C 707.4375 587.101562 707.660156 584.910156 707.828125 582.714844 C 708 580.515625 708.117188 578.316406 708.179688 576.113281 C 709.128906 549.777344 708.464844 523.394531 708.464844 497.011719 C 708.464844 411.285156 709.035156 325.132812 708.464844 239.171875 C 707.941406 180.832031 680.460938 138.445312 627.503906 113.011719 C 618.789062 108.992188 609.738281 105.988281 600.351562 103.996094 C 590.964844 102 581.472656 101.070312 571.875 101.203125 C 460.578125 101.203125 349.328125 101.203125 238.074219 101.203125 C 235.835938 101.183594 233.597656 101.222656 231.359375 101.3125 C 229.121094 101.40625 226.886719 101.554688 224.65625 101.757812 C 222.425781 101.960938 220.203125 102.21875 217.984375 102.535156 C 215.765625 102.847656 213.558594 103.214844 211.359375 103.640625 C 209.160156 104.0625 206.972656 104.539062 204.796875 105.070312 C 202.621094 105.601562 200.460938 106.1875 198.3125 106.824219 C 196.167969 107.464844 194.035156 108.15625 191.925781 108.898438 C 189.8125 109.644531 187.71875 110.4375 185.644531 111.285156 C 183.574219 112.132812 181.523438 113.03125 179.492188 113.980469 C 177.464844 114.929688 175.460938 115.929688 173.480469 116.976562 C 171.503906 118.027344 169.550781 119.125 167.625 120.269531 C 165.699219 121.414062 163.804688 122.605469 161.941406 123.84375 C 160.074219 125.085938 158.238281 126.367188 156.4375 127.699219 C 154.636719 129.027344 152.867188 130.402344 151.132812 131.820312 C 149.398438 133.238281 147.703125 134.695312 146.039062 136.199219 C 144.378906 137.699219 142.753906 139.242188 141.167969 140.824219 C 139.585938 142.40625 138.039062 144.027344 136.535156 145.683594 C 135.027344 147.34375 133.566406 149.039062 132.144531 150.769531 C 130.722656 152.5 129.347656 154.265625 128.011719 156.066406 C 126.679688 157.863281 125.390625 159.695312 124.148438 161.558594 C 122.902344 163.421875 121.707031 165.316406 120.558594 167.238281 C 119.410156 169.160156 118.308594 171.109375 117.257812 173.085938 C 116.203125 175.0625 115.199219 177.066406 114.246094 179.089844 C 113.292969 181.117188 112.390625 183.167969 111.539062 185.238281 C 110.6875 187.308594 109.886719 189.402344 109.136719 191.511719 C 108.390625 193.621094 107.695312 195.75 107.050781 197.894531 C 106.410156 200.042969 105.820312 202.203125 105.28125 204.375 C 104.746094 206.550781 104.265625 208.738281 103.835938 210.9375 C 103.410156 213.132812 103.039062 215.34375 102.71875 217.558594 C 102.402344 219.777344 102.136719 222 101.929688 224.230469 C 101.722656 226.460938 101.570312 228.695312 101.472656 230.929688 C 101.375 233.167969 101.332031 235.40625 101.34375 237.648438 C 100.933594 349.183594 100.933594 460.703125 101.34375 572.210938 C 101.335938 574.449219 101.382812 576.6875 101.484375 578.925781 C 101.585938 581.164062 101.746094 583.398438 101.957031 585.628906 C 102.167969 587.859375 102.4375 590.082031 102.757812 592.296875 C 103.082031 594.515625 103.457031 596.722656 103.890625 598.921875 C 104.324219 601.117188 104.808594 603.304688 105.347656 605.480469 C 105.886719 607.652344 106.480469 609.8125 107.128906 611.957031 C 107.773438 614.101562 108.472656 616.230469 109.226562 618.339844 C 109.976562 620.449219 110.78125 622.539062 111.636719 624.609375 C 112.492188 626.679688 113.398438 628.730469 114.351562 630.753906 C 115.308594 632.78125 116.316406 634.78125 117.371094 636.757812 C 118.425781 638.734375 119.53125 640.679688 120.683594 642.601562 C 121.832031 644.523438 123.03125 646.414062 124.277344 648.277344 C 125.523438 650.140625 126.8125 651.96875 128.148438 653.769531 C 129.484375 655.566406 130.867188 657.328125 132.289062 659.058594 C 133.710938 660.789062 135.175781 662.484375 136.683594 664.140625 C 138.191406 665.796875 139.738281 667.417969 141.324219 669 C 142.910156 670.578125 144.535156 672.121094 146.199219 673.621094 C 147.863281 675.121094 149.5625 676.578125 151.296875 677.996094 C 153.03125 679.414062 154.800781 680.785156 156.605469 682.113281 C 158.410156 683.445312 160.242188 684.726562 162.109375 685.964844 C 163.976562 687.203125 165.875 688.394531 167.800781 689.539062 C 169.726562 690.683594 171.679688 691.78125 173.65625 692.828125 C 175.636719 693.875 177.640625 694.875 179.671875 695.824219 C 181.699219 696.773438 183.753906 697.667969 185.824219 698.515625 C 187.898438 699.363281 189.992188 700.160156 192.105469 700.902344 C 194.21875 701.648438 196.347656 702.339844 198.496094 702.976562 C 200.644531 703.613281 202.804688 704.199219 204.980469 704.730469 C 207.15625 705.261719 209.34375 705.738281 211.546875 706.164062 C 213.746094 706.585938 215.953125 706.957031 218.171875 707.269531 C 220.390625 707.582031 222.613281 707.84375 224.84375 708.046875 C 227.074219 708.25 229.308594 708.398438 231.546875 708.492188 C 233.785156 708.585938 236.027344 708.625 238.265625 708.605469 C 269.363281 708.605469 300.464844 708.605469 331.5625 708.605469 C 344.707031 708.605469 352.613281 718.894531 348.328125 729.800781 C 348.082031 730.558594 347.773438 731.292969 347.410156 732.003906 C 347.046875 732.710938 346.628906 733.390625 346.152344 734.03125 C 345.679688 734.671875 345.15625 735.273438 344.585938 735.832031 C 344.015625 736.386719 343.402344 736.894531 342.75 737.355469 C 342.097656 737.8125 341.414062 738.214844 340.695312 738.566406 C 339.976562 738.914062 339.234375 739.199219 338.46875 739.429688 C 337.707031 739.65625 336.929688 739.820312 336.136719 739.925781 C 335.34375 740.027344 334.550781 740.066406 333.753906 740.039062 C 294.511719 739.707031 255.03125 741.515625 216.023438 738.085938 C 141.921875 731.609375 79.34375 667.792969 71.246094 594.023438 C 70.246094 584.84375 69.722656 575.632812 69.675781 566.398438 C 69.53125 512.632812 69.628906 458.386719 69.628906 404.523438 Z M 69.628906 404.523438 " fill-opacity="1" fill-rule="nonzero"/><path fill="#f9f9f9" d="M 623.976562 405.046875 C 623.949219 408.199219 623.851562 411.351562 623.6875 414.496094 C 623.523438 417.644531 623.292969 420.789062 622.992188 423.925781 C 622.691406 427.066406 622.328125 430.195312 621.894531 433.316406 C 621.460938 436.441406 620.960938 439.550781 620.394531 442.652344 C 619.828125 445.753906 619.195312 448.839844 618.496094 451.914062 C 617.796875 454.988281 617.03125 458.046875 616.199219 461.085938 C 615.371094 464.128906 614.476562 467.148438 613.515625 470.152344 C 612.554688 473.15625 611.53125 476.136719 610.445312 479.09375 C 609.355469 482.054688 608.207031 484.988281 606.992188 487.894531 C 605.78125 490.804688 604.503906 493.6875 603.167969 496.542969 C 601.832031 499.398438 600.433594 502.222656 598.972656 505.015625 C 597.515625 507.8125 596 510.574219 594.421875 513.304688 C 592.847656 516.03125 591.210938 518.726562 589.519531 521.386719 C 587.828125 524.046875 586.078125 526.667969 584.273438 529.253906 C 582.46875 531.839844 580.609375 534.382812 578.699219 536.886719 C 576.785156 539.394531 574.816406 541.855469 572.796875 544.277344 C 570.777344 546.699219 568.707031 549.074219 566.585938 551.40625 C 564.464844 553.738281 562.296875 556.023438 560.078125 558.261719 C 557.859375 560.5 555.589844 562.691406 553.277344 564.832031 C 550.964844 566.972656 548.605469 569.066406 546.203125 571.105469 C 543.800781 573.144531 541.355469 575.132812 538.867188 577.070312 C 536.378906 579.003906 533.851562 580.886719 531.285156 582.714844 C 528.714844 584.542969 526.109375 586.3125 523.464844 588.027344 C 520.820312 589.742188 518.140625 591.402344 515.421875 593.003906 C 512.707031 594.601562 509.957031 596.144531 507.175781 597.628906 C 504.394531 599.109375 501.582031 600.53125 498.742188 601.894531 C 495.898438 603.257812 493.027344 604.558594 490.128906 605.796875 C 487.230469 607.035156 484.304688 608.210938 481.355469 609.324219 C 478.40625 610.441406 475.4375 611.488281 472.441406 612.476562 C 469.449219 613.460938 466.433594 614.382812 463.402344 615.242188 C 460.367188 616.097656 457.316406 616.890625 454.25 617.617188 C 451.183594 618.34375 448.101562 619.003906 445.003906 619.597656 C 441.625 620.222656 438.230469 620.773438 434.824219 621.238281 C 431.414062 621.707031 428 622.09375 424.574219 622.398438 C 421.148438 622.707031 417.71875 622.929688 414.28125 623.074219 C 410.847656 623.21875 407.410156 623.28125 403.972656 623.261719 C 400.53125 623.242188 397.09375 623.144531 393.660156 622.960938 C 390.226562 622.78125 386.800781 622.519531 383.378906 622.175781 C 379.957031 621.832031 376.542969 621.410156 373.144531 620.902344 C 369.742188 620.398438 366.351562 619.816406 362.980469 619.152344 C 359.605469 618.484375 356.25 617.742188 352.910156 616.917969 C 349.570312 616.097656 346.253906 615.195312 342.957031 614.214844 C 339.660156 613.234375 336.390625 612.175781 333.144531 611.042969 C 329.898438 609.910156 326.679688 608.699219 323.492188 607.410156 C 320.300781 606.125 317.144531 604.761719 314.019531 603.328125 C 310.894531 601.890625 307.804688 600.382812 304.753906 598.800781 C 301.699219 597.21875 298.683594 595.566406 295.710938 593.839844 C 292.734375 592.117188 289.800781 590.324219 286.910156 588.460938 C 284.019531 586.597656 281.175781 584.667969 278.375 582.667969 C 275.578125 580.671875 272.828125 578.609375 270.125 576.480469 C 267.421875 574.355469 264.773438 572.164062 262.175781 569.910156 C 259.578125 567.660156 257.035156 565.34375 254.542969 562.972656 C 252.054688 560.601562 249.625 558.167969 247.25 555.679688 C 244.875 553.195312 242.5625 550.652344 240.308594 548.054688 C 238.054688 545.457031 235.863281 542.808594 233.734375 540.105469 C 231.605469 537.40625 229.542969 534.65625 227.542969 531.859375 C 225.542969 529.058594 223.613281 526.214844 221.75 523.324219 C 219.882812 520.4375 218.089844 517.503906 216.363281 514.53125 C 214.636719 511.554688 212.984375 508.542969 211.402344 505.488281 C 209.816406 502.4375 208.308594 499.347656 206.871094 496.222656 C 205.433594 493.097656 204.070312 489.941406 202.78125 486.753906 C 201.492188 483.566406 200.28125 480.347656 199.144531 477.101562 C 198.007812 473.855469 196.949219 470.585938 195.96875 467.289062 C 194.988281 463.996094 194.085938 460.679688 193.261719 457.339844 C 191.578125 450.800781 190.207031 444.199219 189.148438 437.53125 C 188.09375 430.863281 187.351562 424.160156 186.929688 417.421875 C 186.511719 410.683594 186.410156 403.941406 186.628906 397.191406 C 186.84375 390.445312 187.382812 383.722656 188.238281 377.023438 C 189.097656 370.328125 190.269531 363.6875 191.753906 357.101562 C 193.242188 350.515625 195.035156 344.015625 197.140625 337.601562 C 199.242188 331.183594 201.644531 324.882812 204.347656 318.695312 C 207.046875 312.507812 210.035156 306.460938 213.3125 300.558594 C 218.789062 290.320312 227.597656 286.890625 235.980469 291.273438 C 244.363281 295.652344 246.789062 304.558594 241.695312 314.511719 C 231.734375 333.515625 224.890625 353.582031 221.167969 374.710938 C 220.257812 379.832031 219.570312 384.980469 219.105469 390.160156 C 218.640625 395.339844 218.398438 400.53125 218.386719 405.730469 C 218.371094 410.933594 218.578125 416.125 219.015625 421.304688 C 219.449219 426.488281 220.105469 431.640625 220.988281 436.769531 C 221.871094 441.894531 222.972656 446.96875 224.292969 452 C 225.613281 457.03125 227.148438 461.996094 228.902344 466.890625 C 230.652344 471.789062 232.613281 476.601562 234.78125 481.328125 C 236.949219 486.054688 239.316406 490.679688 241.886719 495.199219 C 268.984375 543.347656 309.65625 575.164062 363.851562 586.640625 C 437.8125 602.261719 501.296875 580.972656 549.160156 522.585938 C 619.214844 436.859375 601.261719 315.085938 510.773438 251.648438 C 505.710938 248.011719 500.476562 244.648438 495.058594 241.5625 C 489.644531 238.476562 484.082031 235.683594 478.375 233.179688 C 472.667969 230.679688 466.84375 228.484375 460.902344 226.59375 C 454.964844 224.703125 448.941406 223.132812 442.835938 221.875 C 436.730469 220.617188 430.578125 219.6875 424.375 219.078125 C 418.171875 218.46875 411.953125 218.1875 405.722656 218.230469 C 399.488281 218.273438 393.277344 218.644531 387.082031 219.34375 C 380.886719 220.042969 374.75 221.0625 368.664062 222.40625 C 352.898438 225.597656 337.898438 232.695312 322.371094 237.550781 C 317.496094 239.433594 312.464844 240.082031 307.273438 239.503906 C 306.527344 239.339844 305.796875 239.109375 305.089844 238.820312 C 304.378906 238.53125 303.699219 238.179688 303.050781 237.773438 C 302.402344 237.367188 301.792969 236.910156 301.21875 236.398438 C 300.648438 235.886719 300.125 235.332031 299.652344 234.730469 C 299.175781 234.128906 298.753906 233.492188 298.386719 232.820312 C 298.019531 232.148438 297.714844 231.449219 297.464844 230.722656 C 297.21875 230 297.035156 229.257812 296.914062 228.5 C 296.792969 227.746094 296.738281 226.984375 296.75 226.214844 C 296.640625 225.394531 296.605469 224.566406 296.636719 223.734375 C 296.667969 222.90625 296.769531 222.085938 296.9375 221.273438 C 297.109375 220.457031 297.347656 219.664062 297.652344 218.894531 C 297.957031 218.121094 298.324219 217.378906 298.753906 216.667969 C 299.179688 215.957031 299.667969 215.285156 300.210938 214.65625 C 300.753906 214.027344 301.34375 213.449219 301.984375 212.921875 C 302.625 212.390625 303.304688 211.921875 304.023438 211.507812 C 304.746094 211.089844 305.496094 210.742188 306.273438 210.453125 C 323.464844 203.976562 340.421875 196.164062 358.183594 192.210938 C 364.335938 190.730469 370.542969 189.53125 376.804688 188.621094 C 383.066406 187.707031 389.355469 187.082031 395.671875 186.746094 C 401.992188 186.410156 408.3125 186.367188 414.636719 186.609375 C 420.957031 186.855469 427.257812 187.390625 433.53125 188.210938 C 439.804688 189.035156 446.027344 190.140625 452.199219 191.535156 C 458.371094 192.929688 464.464844 194.601562 470.484375 196.554688 C 476.503906 198.507812 482.417969 200.734375 488.234375 203.230469 C 494.046875 205.726562 499.734375 208.484375 505.296875 211.5 C 569.113281 245.742188 607.832031 298.84375 620.121094 370.566406 C 622.074219 382.1875 622.738281 393.570312 623.976562 405.046875 Z M 623.976562 405.046875 " fill-opacity="1" fill-rule="nonzero"/><path fill="#f9f9f9" d="M 404.714844 547.398438 C 402.382812 547.394531 400.050781 547.335938 397.722656 547.214844 C 395.394531 547.097656 393.070312 546.925781 390.75 546.691406 C 388.429688 546.460938 386.117188 546.171875 383.8125 545.828125 C 381.507812 545.480469 379.210938 545.078125 376.921875 544.621094 C 374.636719 544.164062 372.363281 543.648438 370.101562 543.078125 C 367.84375 542.507812 365.597656 541.882812 363.367188 541.203125 C 361.136719 540.523438 358.925781 539.789062 356.730469 539 C 354.535156 538.210938 352.363281 537.371094 350.210938 536.472656 C 348.058594 535.578125 345.925781 534.628906 343.820312 533.628906 C 341.714844 532.628906 339.636719 531.578125 337.582031 530.476562 C 335.527344 529.375 333.5 528.222656 331.5 527.019531 C 329.503906 525.820312 327.535156 524.566406 325.601562 523.269531 C 323.664062 521.972656 321.761719 520.625 319.890625 519.234375 C 318.019531 517.84375 316.183594 516.40625 314.382812 514.921875 C 312.585938 513.441406 310.820312 511.914062 309.097656 510.347656 C 307.371094 508.777344 305.6875 507.167969 304.039062 505.515625 C 302.394531 503.863281 300.789062 502.171875 299.226562 500.441406 C 297.664062 498.710938 296.144531 496.945312 294.667969 495.140625 C 293.195312 493.335938 291.761719 491.496094 290.378906 489.621094 C 288.992188 487.742188 287.652344 485.835938 286.363281 483.894531 C 285.070312 481.953125 283.828125 479.980469 282.632812 477.980469 C 281.4375 475.976562 280.292969 473.949219 279.195312 471.890625 C 278.101562 469.832031 277.058594 467.746094 276.0625 465.636719 C 275.070312 463.527344 274.128906 461.394531 273.242188 459.238281 C 272.355469 457.082031 271.519531 454.90625 270.738281 452.710938 C 269.957031 450.515625 269.230469 448.300781 268.558594 446.066406 C 267.886719 443.832031 267.269531 441.585938 266.707031 439.324219 C 266.144531 437.058594 265.636719 434.785156 265.1875 432.496094 C 264.738281 430.210938 264.34375 427.914062 264.007812 425.605469 C 263.667969 423.296875 263.386719 420.984375 263.164062 418.664062 C 262.941406 416.34375 262.773438 414.019531 262.664062 411.6875 C 262.554688 409.359375 262.503906 407.03125 262.507812 404.699219 C 262.511719 402.367188 262.574219 400.035156 262.695312 397.707031 C 262.8125 395.378906 262.992188 393.054688 263.222656 390.734375 C 263.457031 388.414062 263.75 386.101562 264.09375 383.796875 C 264.441406 381.492188 264.847656 379.195312 265.304688 376.910156 C 265.765625 374.625 266.28125 372.351562 266.851562 370.089844 C 267.425781 367.828125 268.050781 365.585938 268.734375 363.355469 C 269.414062 361.125 270.152344 358.914062 270.941406 356.71875 C 271.734375 354.527344 272.578125 352.355469 273.472656 350.203125 C 274.371094 348.050781 275.320312 345.921875 276.324219 343.816406 C 277.324219 341.710938 278.378906 339.632812 279.480469 337.578125 C 280.585938 335.523438 281.738281 333.5 282.941406 331.5 C 284.144531 329.503906 285.398438 327.539062 286.699219 325.601562 C 287.996094 323.667969 289.34375 321.765625 290.738281 319.894531 C 292.132812 318.027344 293.570312 316.191406 295.054688 314.394531 C 296.539062 312.59375 298.0625 310.832031 299.632812 309.109375 C 301.203125 307.386719 302.816406 305.703125 304.46875 304.058594 C 306.121094 302.414062 307.8125 300.808594 309.546875 299.246094 C 311.277344 297.6875 313.046875 296.167969 314.851562 294.695312 C 316.65625 293.21875 318.5 291.789062 320.375 290.40625 C 322.25 289.023438 324.160156 287.683594 326.101562 286.394531 C 328.042969 285.105469 330.015625 283.863281 332.019531 282.667969 C 334.023438 281.476562 336.054688 280.332031 338.113281 279.238281 C 340.171875 278.144531 342.257812 277.101562 344.367188 276.109375 C 346.480469 275.121094 348.613281 274.179688 350.769531 273.292969 C 352.925781 272.40625 355.101562 271.574219 357.300781 270.796875 C 359.496094 270.015625 361.710938 269.292969 363.945312 268.621094 C 366.179688 267.949219 368.425781 267.335938 370.691406 266.773438 C 372.953125 266.214844 375.230469 265.710938 377.515625 265.261719 C 379.804688 264.8125 382.101562 264.421875 384.410156 264.085938 C 386.71875 263.75 389.03125 263.46875 391.351562 263.25 C 393.671875 263.027344 396 262.863281 398.328125 262.753906 C 400.65625 262.648438 402.988281 262.597656 405.320312 262.601562 C 407.648438 262.609375 409.980469 262.671875 412.308594 262.792969 C 414.636719 262.914062 416.960938 263.09375 419.28125 263.328125 C 421.601562 263.566406 423.914062 263.855469 426.21875 264.207031 C 428.523438 264.554688 430.820312 264.960938 433.105469 265.421875 C 435.390625 265.882812 437.664062 266.402344 439.921875 266.976562 C 442.183594 267.546875 444.425781 268.175781 446.65625 268.859375 C 448.886719 269.542969 451.097656 270.28125 453.289062 271.074219 C 455.480469 271.867188 457.652344 272.710938 459.804688 273.609375 C 461.957031 274.507812 464.085938 275.460938 466.191406 276.464844 C 468.292969 277.46875 470.371094 278.523438 472.425781 279.628906 C 474.480469 280.734375 476.503906 281.890625 478.5 283.09375 C 480.496094 284.296875 482.460938 285.550781 484.394531 286.855469 C 486.328125 288.15625 488.230469 289.503906 490.097656 290.898438 C 491.96875 292.292969 493.800781 293.734375 495.597656 295.21875 C 497.394531 296.703125 499.15625 298.230469 500.878906 299.804688 C 502.601562 301.375 504.285156 302.988281 505.925781 304.640625 C 507.570312 306.296875 509.171875 307.988281 510.730469 309.722656 C 512.292969 311.453125 513.808594 313.222656 515.28125 315.03125 C 516.753906 316.839844 518.183594 318.679688 519.566406 320.558594 C 520.949219 322.4375 522.285156 324.347656 523.570312 326.289062 C 524.859375 328.230469 526.101562 330.207031 527.292969 332.210938 C 528.484375 334.214844 529.628906 336.246094 530.71875 338.304688 C 531.8125 340.367188 532.851562 342.453125 533.839844 344.5625 C 534.832031 346.675781 535.769531 348.808594 536.652344 350.964844 C 537.539062 353.121094 538.367188 355.300781 539.148438 357.5 C 539.925781 359.695312 540.648438 361.914062 541.316406 364.144531 C 541.984375 366.378906 542.597656 368.628906 543.15625 370.890625 C 543.714844 373.15625 544.21875 375.429688 544.664062 377.71875 C 545.113281 380.007812 545.503906 382.304688 545.835938 384.613281 C 546.171875 386.921875 546.449219 389.234375 546.667969 391.558594 C 546.886719 393.878906 547.050781 396.203125 547.15625 398.53125 C 547.261719 400.863281 547.3125 403.191406 547.300781 405.523438 C 547.285156 407.847656 547.214844 410.171875 547.082031 412.492188 C 546.953125 414.8125 546.765625 417.128906 546.523438 419.441406 C 546.28125 421.753906 545.984375 424.058594 545.628906 426.359375 C 545.273438 428.65625 544.859375 430.941406 544.394531 433.21875 C 543.925781 435.496094 543.40625 437.761719 542.828125 440.015625 C 542.25 442.265625 541.617188 444.503906 540.929688 446.722656 C 540.246094 448.945312 539.503906 451.148438 538.710938 453.332031 C 537.914062 455.519531 537.070312 457.683594 536.167969 459.828125 C 535.269531 461.96875 534.316406 464.089844 533.3125 466.1875 C 532.308594 468.285156 531.257812 470.355469 530.152344 472.402344 C 529.046875 474.449219 527.894531 476.464844 526.691406 478.457031 C 525.488281 480.445312 524.238281 482.402344 522.9375 484.332031 C 521.640625 486.261719 520.292969 488.15625 518.902344 490.019531 C 517.511719 491.882812 516.078125 493.707031 514.597656 495.5 C 513.117188 497.292969 511.59375 499.050781 510.027344 500.769531 C 508.460938 502.484375 506.851562 504.164062 505.203125 505.804688 C 503.558594 507.445312 501.871094 509.042969 500.144531 510.601562 C 498.417969 512.15625 496.65625 513.671875 494.855469 515.144531 C 493.054688 516.617188 491.21875 518.042969 489.351562 519.421875 C 487.480469 520.804688 485.578125 522.140625 483.644531 523.429688 C 481.707031 524.71875 479.742188 525.960938 477.746094 527.152344 C 475.753906 528.347656 473.730469 529.488281 471.679688 530.582031 C 469.625 531.679688 467.550781 532.722656 465.449219 533.714844 C 463.34375 534.707031 461.21875 535.648438 459.070312 536.535156 C 456.925781 537.425781 454.753906 538.261719 452.566406 539.046875 C 450.378906 539.828125 448.171875 540.558594 445.945312 541.234375 C 443.722656 541.910156 441.480469 542.53125 439.226562 543.097656 C 436.972656 543.664062 434.703125 544.171875 432.425781 544.628906 C 430.144531 545.085938 427.855469 545.484375 425.554688 545.828125 C 423.257812 546.171875 420.949219 546.457031 418.636719 546.691406 C 416.324219 546.921875 414.007812 547.097656 411.683594 547.214844 C 409.363281 547.332031 407.039062 547.394531 404.714844 547.398438 Z M 405.476562 294.273438 C 403.664062 294.265625 401.851562 294.300781 400.039062 294.382812 C 398.230469 294.464844 396.421875 294.589844 394.617188 294.757812 C 392.8125 294.929688 391.011719 295.144531 389.21875 295.402344 C 387.425781 295.660156 385.636719 295.960938 383.859375 296.308594 C 382.078125 296.65625 380.308594 297.042969 378.546875 297.476562 C 376.789062 297.910156 375.039062 298.386719 373.300781 298.90625 C 371.566406 299.425781 369.84375 299.984375 368.132812 300.589844 C 366.421875 301.191406 364.730469 301.839844 363.050781 302.523438 C 361.375 303.210938 359.714844 303.9375 358.074219 304.707031 C 356.429688 305.476562 354.808594 306.285156 353.207031 307.132812 C 351.605469 307.980469 350.023438 308.867188 348.464844 309.792969 C 346.90625 310.71875 345.371094 311.679688 343.859375 312.683594 C 342.347656 313.683594 340.863281 314.71875 339.402344 315.792969 C 337.941406 316.867188 336.507812 317.976562 335.101562 319.121094 C 333.695312 320.265625 332.320312 321.445312 330.972656 322.65625 C 329.625 323.867188 328.304688 325.113281 327.019531 326.390625 C 325.730469 327.664062 324.476562 328.972656 323.253906 330.3125 C 322.03125 331.648438 320.84375 333.015625 319.6875 334.414062 C 318.53125 335.8125 317.410156 337.234375 316.324219 338.6875 C 315.238281 340.140625 314.191406 341.617188 313.175781 343.121094 C 312.164062 344.621094 311.1875 346.148438 310.25 347.703125 C 309.3125 349.253906 308.414062 350.824219 307.550781 352.421875 C 306.691406 354.015625 305.871094 355.632812 305.089844 357.269531 C 304.308594 358.902344 303.566406 360.558594 302.867188 362.230469 C 302.164062 363.902344 301.507812 365.589844 300.890625 367.292969 C 300.273438 369 299.699219 370.71875 299.164062 372.449219 C 298.632812 374.183594 298.140625 375.929688 297.695312 377.683594 C 297.246094 379.441406 296.84375 381.207031 296.484375 382.984375 C 296.121094 384.761719 295.804688 386.546875 295.535156 388.335938 C 295.261719 390.128906 295.03125 391.925781 294.847656 393.730469 C 294.664062 395.535156 294.523438 397.339844 294.425781 399.152344 C 294.332031 400.960938 294.28125 402.773438 294.273438 404.585938 C 294.265625 406.398438 294.304688 408.210938 294.386719 410.023438 C 294.46875 411.832031 294.59375 413.640625 294.765625 415.445312 C 294.9375 417.25 295.152344 419.050781 295.410156 420.84375 C 295.671875 422.636719 295.976562 424.425781 296.320312 426.203125 C 296.667969 427.984375 297.058594 429.753906 297.492188 431.511719 C 297.929688 433.273438 298.40625 435.019531 298.925781 436.757812 C 299.445312 438.492188 300.007812 440.21875 300.613281 441.925781 C 301.214844 443.636719 301.863281 445.328125 302.550781 447.003906 C 303.238281 448.683594 303.964844 450.34375 304.734375 451.984375 C 305.503906 453.625 306.3125 455.246094 307.164062 456.847656 C 308.011719 458.449219 308.898438 460.03125 309.824219 461.589844 C 310.753906 463.144531 311.714844 464.679688 312.71875 466.191406 C 313.71875 467.703125 314.757812 469.1875 315.832031 470.648438 C 316.90625 472.105469 318.019531 473.539062 319.164062 474.945312 C 320.308594 476.351562 321.488281 477.726562 322.699219 479.074219 C 323.914062 480.421875 325.15625 481.738281 326.433594 483.023438 C 327.710938 484.3125 329.019531 485.566406 330.359375 486.785156 C 331.699219 488.007812 333.066406 489.199219 334.464844 490.351562 C 335.863281 491.507812 337.285156 492.625 338.738281 493.710938 C 340.191406 494.796875 341.667969 495.84375 343.171875 496.855469 C 344.675781 497.871094 346.203125 498.84375 347.757812 499.78125 C 349.308594 500.71875 350.882812 501.617188 352.476562 502.476562 C 354.074219 503.335938 355.691406 504.15625 357.324219 504.9375 C 358.960938 505.71875 360.617188 506.457031 362.289062 507.15625 C 363.960938 507.855469 365.648438 508.515625 367.355469 509.128906 C 369.058594 509.746094 370.777344 510.320312 372.511719 510.851562 C 374.246094 511.382812 375.988281 511.875 377.746094 512.320312 C 379.503906 512.765625 381.269531 513.167969 383.046875 513.527344 C 384.824219 513.886719 386.609375 514.203125 388.402344 514.476562 C 390.195312 514.746094 391.992188 514.972656 393.796875 515.15625 C 395.597656 515.339844 397.40625 515.480469 399.214844 515.574219 C 401.027344 515.667969 402.835938 515.71875 404.648438 515.726562 C 406.464844 515.730469 408.273438 515.691406 410.085938 515.609375 C 411.898438 515.527344 413.703125 515.398438 415.507812 515.226562 C 417.3125 515.054688 419.113281 514.839844 420.90625 514.578125 C 422.699219 514.316406 424.488281 514.011719 426.265625 513.664062 C 428.046875 513.316406 429.816406 512.925781 431.574219 512.488281 C 433.335938 512.054688 435.082031 511.578125 436.820312 511.054688 C 438.554688 510.535156 440.277344 509.972656 441.988281 509.367188 C 443.695312 508.761719 445.386719 508.113281 447.066406 507.425781 C 448.742188 506.734375 450.402344 506.007812 452.042969 505.238281 C 453.683594 504.464844 455.304688 503.65625 456.90625 502.808594 C 458.507812 501.957031 460.085938 501.070312 461.644531 500.140625 C 463.199219 499.214844 464.734375 498.25 466.246094 497.246094 C 467.753906 496.242188 469.242188 495.203125 470.699219 494.128906 C 472.160156 493.054688 473.589844 491.941406 474.996094 490.796875 C 476.398438 489.648438 477.777344 488.46875 479.121094 487.257812 C 480.46875 486.042969 481.785156 484.796875 483.070312 483.519531 C 484.355469 482.242188 485.609375 480.933594 486.832031 479.59375 C 488.050781 478.253906 489.238281 476.882812 490.394531 475.484375 C 491.546875 474.089844 492.667969 472.664062 493.75 471.210938 C 494.835938 469.757812 495.882812 468.277344 496.894531 466.773438 C 497.90625 465.269531 498.878906 463.742188 499.816406 462.1875 C 500.75 460.636719 501.648438 459.0625 502.507812 457.464844 C 503.367188 455.867188 504.1875 454.253906 504.964844 452.617188 C 505.746094 450.980469 506.484375 449.324219 507.183594 447.652344 C 507.878906 445.980469 508.539062 444.289062 509.152344 442.585938 C 509.769531 440.878906 510.339844 439.160156 510.871094 437.425781 C 511.402344 435.695312 511.890625 433.949219 512.335938 432.191406 C 512.78125 430.433594 513.183594 428.667969 513.542969 426.890625 C 513.898438 425.113281 514.214844 423.328125 514.484375 421.535156 C 514.757812 419.742188 514.984375 417.945312 515.164062 416.140625 C 515.347656 414.335938 515.484375 412.53125 515.578125 410.71875 C 515.671875 408.910156 515.722656 407.097656 515.726562 405.285156 C 515.722656 403.476562 515.675781 401.671875 515.585938 399.863281 C 515.496094 398.058594 515.359375 396.257812 515.179688 394.457031 C 515 392.660156 514.777344 390.863281 514.511719 389.078125 C 514.246094 387.289062 513.933594 385.507812 513.582031 383.734375 C 513.226562 381.960938 512.832031 380.199219 512.390625 378.445312 C 511.953125 376.691406 511.472656 374.949219 510.945312 373.21875 C 510.421875 371.488281 509.855469 369.769531 509.246094 368.066406 C 508.640625 366.363281 507.988281 364.679688 507.300781 363.007812 C 506.609375 361.335938 505.878906 359.683594 505.109375 358.046875 C 504.335938 356.414062 503.527344 354.796875 502.675781 353.199219 C 501.828125 351.605469 500.9375 350.03125 500.011719 348.476562 C 499.085938 346.925781 498.121094 345.394531 497.121094 343.890625 C 496.117188 342.386719 495.082031 340.90625 494.007812 339.449219 C 492.933594 337.996094 491.824219 336.566406 490.683594 335.167969 C 489.539062 333.765625 488.363281 332.394531 487.152344 331.050781 C 485.941406 329.707031 484.699219 328.394531 483.425781 327.109375 C 482.152344 325.828125 480.847656 324.578125 479.511719 323.355469 C 478.179688 322.136719 476.8125 320.953125 475.421875 319.800781 C 474.027344 318.648438 472.609375 317.527344 471.160156 316.445312 C 469.714844 315.363281 468.238281 314.3125 466.742188 313.304688 C 465.242188 312.292969 463.71875 311.316406 462.175781 310.378906 C 460.628906 309.441406 459.058594 308.542969 457.46875 307.683594 C 455.878906 306.820312 454.269531 306 452.640625 305.21875 C 451.011719 304.433594 449.363281 303.691406 447.695312 302.992188 C 446.027344 302.289062 444.347656 301.628906 442.648438 301.007812 C 440.949219 300.386719 439.238281 299.808594 437.511719 299.273438 C 435.785156 298.738281 434.046875 298.242188 432.292969 297.792969 C 430.542969 297.339844 428.78125 296.933594 427.011719 296.566406 C 425.242188 296.199219 423.464844 295.878906 421.675781 295.597656 C 419.890625 295.320312 418.097656 295.085938 416.300781 294.894531 C 414.503906 294.703125 412.699219 294.554688 410.894531 294.453125 C 409.089844 294.347656 407.285156 294.289062 405.476562 294.273438 Z M 405.476562 294.273438 " fill-opacity="1" fill-rule="nonzero"/><path fill="#f9f9f9" d="M 612.738281 137.492188 C 614.707031 137.492188 616.675781 137.589844 618.636719 137.785156 C 620.597656 137.976562 622.542969 138.269531 624.476562 138.65625 C 626.40625 139.042969 628.316406 139.523438 630.199219 140.097656 C 632.085938 140.675781 633.9375 141.339844 635.753906 142.101562 C 637.574219 142.859375 639.351562 143.707031 641.085938 144.640625 C 642.820312 145.574219 644.503906 146.59375 646.136719 147.695312 C 647.773438 148.792969 649.347656 149.972656 650.867188 151.230469 C 652.382812 152.488281 653.835938 153.816406 655.222656 155.214844 C 656.609375 156.617188 657.921875 158.082031 659.164062 159.613281 C 660.402344 161.144531 661.566406 162.730469 662.652344 164.375 C 663.734375 166.023438 664.734375 167.71875 665.652344 169.460938 C 666.570312 171.207031 667.398438 172.992188 668.136719 174.816406 C 668.875 176.644531 669.523438 178.503906 670.082031 180.394531 C 670.636719 182.28125 671.097656 184.195312 671.464844 186.132812 C 671.832031 188.066406 672.101562 190.019531 672.277344 191.980469 C 672.449219 193.941406 672.527344 195.910156 672.507812 197.878906 C 672.484375 199.835938 672.363281 201.785156 672.148438 203.726562 C 671.9375 205.671875 671.628906 207.601562 671.230469 209.515625 C 670.828125 211.425781 670.335938 213.316406 669.753906 215.183594 C 669.167969 217.050781 668.496094 218.882812 667.734375 220.683594 C 666.972656 222.484375 666.125 224.242188 665.191406 225.960938 C 664.261719 227.679688 663.246094 229.351562 662.152344 230.96875 C 661.058594 232.589844 659.886719 234.15625 658.640625 235.660156 C 657.394531 237.167969 656.082031 238.609375 654.695312 239.988281 C 653.308594 241.371094 651.859375 242.679688 650.347656 243.917969 C 648.835938 245.15625 647.265625 246.316406 645.640625 247.40625 C 644.015625 248.492188 642.339844 249.496094 640.617188 250.421875 C 638.894531 251.34375 637.128906 252.183594 635.324219 252.9375 C 633.519531 253.691406 631.683594 254.355469 629.816406 254.929688 C 627.949219 255.503906 626.054688 255.988281 624.140625 256.378906 C 622.222656 256.769531 620.292969 257.066406 618.347656 257.273438 C 616.40625 257.476562 614.457031 257.585938 612.5 257.601562 C 610.546875 257.5625 608.597656 257.433594 606.65625 257.210938 C 604.714844 256.984375 602.789062 256.671875 600.878906 256.261719 C 598.96875 255.855469 597.078125 255.355469 595.214844 254.765625 C 593.351562 254.179688 591.523438 253.503906 589.722656 252.738281 C 587.921875 251.976562 586.164062 251.128906 584.449219 250.195312 C 582.730469 249.261719 581.058594 248.25 579.441406 247.160156 C 577.820312 246.070312 576.253906 244.902344 574.742188 243.660156 C 573.234375 242.417969 571.789062 241.109375 570.402344 239.730469 C 569.019531 238.351562 567.703125 236.90625 566.457031 235.402344 C 565.210938 233.894531 564.042969 232.335938 562.945312 230.71875 C 561.847656 229.101562 560.832031 227.433594 559.894531 225.71875 C 558.957031 224.003906 558.101562 222.25 557.332031 220.453125 C 556.5625 218.65625 555.882812 216.828125 555.289062 214.964844 C 554.691406 213.101562 554.1875 211.21875 553.773438 209.308594 C 553.359375 207.398438 553.039062 205.472656 552.808594 203.53125 C 552.578125 201.589844 552.441406 199.644531 552.398438 197.691406 C 552.40625 195.71875 552.511719 193.75 552.710938 191.789062 C 552.910156 189.824219 553.207031 187.878906 553.597656 185.945312 C 553.988281 184.011719 554.472656 182.101562 555.050781 180.214844 C 555.628906 178.332031 556.296875 176.476562 557.058594 174.65625 C 557.816406 172.835938 558.664062 171.058594 559.597656 169.320312 C 560.53125 167.582031 561.546875 165.894531 562.644531 164.257812 C 563.746094 162.621094 564.921875 161.039062 566.175781 159.515625 C 567.429688 157.992188 568.753906 156.535156 570.148438 155.144531 C 571.546875 153.75 573.007812 152.429688 574.53125 151.179688 C 576.058594 149.929688 577.640625 148.757812 579.28125 147.660156 C 580.921875 146.566406 582.613281 145.554688 584.351562 144.625 C 586.09375 143.695312 587.871094 142.851562 589.695312 142.097656 C 591.515625 141.34375 593.371094 140.675781 595.257812 140.105469 C 597.144531 139.53125 599.058594 139.050781 600.992188 138.664062 C 602.925781 138.277344 604.875 137.988281 606.835938 137.789062 C 608.796875 137.59375 610.765625 137.496094 612.738281 137.492188 Z M 612.738281 169.164062 C 611.800781 169.164062 610.867188 169.207031 609.9375 169.300781 C 609.007812 169.390625 608.082031 169.527344 607.164062 169.710938 C 606.246094 169.894531 605.339844 170.121094 604.445312 170.394531 C 603.546875 170.664062 602.667969 170.980469 601.804688 171.335938 C 600.9375 171.695312 600.09375 172.09375 599.269531 172.535156 C 598.441406 172.976562 597.640625 173.457031 596.863281 173.976562 C 596.085938 174.5 595.335938 175.054688 594.609375 175.648438 C 593.886719 176.242188 593.195312 176.871094 592.53125 177.53125 C 591.871094 178.195312 591.242188 178.886719 590.648438 179.609375 C 590.054688 180.332031 589.5 181.085938 588.980469 181.863281 C 588.460938 182.640625 587.980469 183.441406 587.539062 184.265625 C 587.097656 185.09375 586.695312 185.9375 586.339844 186.800781 C 585.980469 187.667969 585.664062 188.546875 585.394531 189.441406 C 585.121094 190.339844 584.894531 191.246094 584.710938 192.164062 C 584.53125 193.082031 584.394531 194.003906 584.300781 194.9375 C 584.210938 195.867188 584.164062 196.800781 584.164062 197.738281 C 584.195312 198.660156 584.273438 199.578125 584.390625 200.492188 C 584.511719 201.40625 584.675781 202.3125 584.878906 203.210938 C 585.085938 204.113281 585.332031 205 585.621094 205.875 C 585.914062 206.75 586.242188 207.613281 586.613281 208.457031 C 586.984375 209.300781 587.394531 210.125 587.84375 210.929688 C 588.292969 211.738281 588.777344 212.519531 589.300781 213.28125 C 589.824219 214.039062 590.382812 214.773438 590.976562 215.480469 C 591.566406 216.1875 592.191406 216.863281 592.847656 217.511719 C 593.503906 218.160156 594.191406 218.773438 594.90625 219.359375 C 595.621094 219.941406 596.363281 220.488281 597.128906 221.003906 C 597.894531 221.515625 598.683594 221.992188 599.496094 222.429688 C 600.308594 222.867188 601.136719 223.265625 601.988281 223.625 C 602.835938 223.984375 603.703125 224.304688 604.582031 224.582031 C 605.460938 224.859375 606.351562 225.09375 607.253906 225.289062 C 608.15625 225.480469 609.066406 225.632812 609.980469 225.738281 C 610.898438 225.847656 611.816406 225.910156 612.738281 225.929688 C 613.671875 225.921875 614.605469 225.867188 615.535156 225.765625 C 616.464844 225.664062 617.386719 225.519531 618.300781 225.328125 C 619.21875 225.136719 620.121094 224.902344 621.011719 224.621094 C 621.90625 224.339844 622.78125 224.019531 623.640625 223.652344 C 624.5 223.285156 625.339844 222.878906 626.160156 222.429688 C 626.980469 221.980469 627.777344 221.492188 628.550781 220.96875 C 629.324219 220.441406 630.066406 219.878906 630.785156 219.277344 C 631.503906 218.679688 632.1875 218.042969 632.84375 217.378906 C 633.5 216.710938 634.121094 216.011719 634.707031 215.285156 C 635.292969 214.554688 635.84375 213.800781 636.355469 213.019531 C 636.867188 212.238281 637.339844 211.433594 637.773438 210.605469 C 638.207031 209.777344 638.597656 208.929688 638.949219 208.0625 C 639.296875 207.195312 639.605469 206.3125 639.867188 205.414062 C 640.132812 204.519531 640.351562 203.609375 640.527344 202.691406 C 640.699219 201.773438 640.828125 200.847656 640.914062 199.917969 C 640.996094 198.988281 641.035156 198.054688 641.027344 197.117188 C 641.027344 196.195312 640.980469 195.273438 640.890625 194.355469 C 640.800781 193.433594 640.664062 192.523438 640.480469 191.617188 C 640.300781 190.710938 640.074219 189.816406 639.804688 188.933594 C 639.535156 188.050781 639.21875 187.183594 638.863281 186.332031 C 638.507812 185.480469 638.109375 184.648438 637.671875 183.835938 C 637.230469 183.023438 636.753906 182.234375 636.238281 181.46875 C 635.71875 180.703125 635.167969 179.964844 634.578125 179.253906 C 633.988281 178.542969 633.363281 177.863281 632.707031 177.214844 C 632.046875 176.566406 631.359375 175.953125 630.640625 175.371094 C 629.921875 174.789062 629.179688 174.246094 628.40625 173.742188 C 627.632812 173.234375 626.835938 172.765625 626.019531 172.339844 C 625.199219 171.910156 624.363281 171.523438 623.507812 171.179688 C 622.648438 170.835938 621.777344 170.535156 620.890625 170.277344 C 620.003906 170.019531 619.105469 169.804688 618.199219 169.632812 C 617.289062 169.464844 616.378906 169.339844 615.457031 169.261719 C 614.535156 169.183594 613.613281 169.148438 612.691406 169.164062 Z M 612.738281 169.164062 " fill-opacity="1" fill-rule="nonzero"/><path fill="#f9f9f9" d="M 266.839844 241.695312 C 267.855469 241.699219 268.863281 241.800781 269.859375 242.003906 C 270.855469 242.207031 271.820312 242.503906 272.757812 242.898438 C 273.695312 243.292969 274.582031 243.773438 275.425781 244.34375 C 276.265625 244.914062 277.042969 245.5625 277.753906 246.285156 C 278.46875 247.007812 279.101562 247.796875 279.660156 248.644531 C 280.21875 249.496094 280.683594 250.390625 281.066406 251.335938 C 281.445312 252.277344 281.726562 253.246094 281.914062 254.246094 C 282.101562 255.246094 282.1875 256.253906 282.175781 257.269531 C 282.136719 258.316406 282 259.351562 281.769531 260.375 C 281.535156 261.398438 281.210938 262.390625 280.796875 263.351562 C 280.378906 264.316406 279.878906 265.230469 279.292969 266.101562 C 278.707031 266.96875 278.046875 267.777344 277.308594 268.523438 C 276.574219 269.273438 275.777344 269.945312 274.914062 270.542969 C 274.054688 271.140625 273.144531 271.65625 272.1875 272.085938 C 271.234375 272.515625 270.246094 272.855469 269.226562 273.101562 C 268.207031 273.347656 267.171875 273.5 266.125 273.554688 C 265.078125 273.519531 264.039062 273.386719 263.015625 273.152344 C 261.988281 272.917969 260.996094 272.589844 260.035156 272.167969 C 259.074219 271.746094 258.160156 271.238281 257.292969 270.640625 C 256.429688 270.046875 255.625 269.375 254.890625 268.625 C 254.152344 267.875 253.492188 267.066406 252.910156 266.191406 C 252.324219 265.316406 251.828125 264.394531 251.421875 263.425781 C 251.015625 262.460938 250.699219 261.460938 250.484375 260.433594 C 250.265625 259.40625 250.144531 258.367188 250.125 257.316406 C 250.203125 256.269531 250.378906 255.238281 250.652344 254.222656 C 250.921875 253.210938 251.289062 252.230469 251.742188 251.28125 C 252.195312 250.335938 252.734375 249.441406 253.355469 248.59375 C 253.976562 247.746094 254.671875 246.964844 255.4375 246.25 C 256.207031 245.53125 257.03125 244.890625 257.917969 244.328125 C 258.804688 243.765625 259.738281 243.289062 260.710938 242.898438 C 261.6875 242.511719 262.691406 242.214844 263.71875 242.011719 C 264.75 241.808594 265.789062 241.703125 266.839844 241.695312 Z M 266.839844 241.695312 " fill-opacity="1" fill-rule="nonzero"/><path fill="#f9f9f9" d="M 405.285156 740.324219 C 404.769531 740.335938 404.25 740.320312 403.734375 740.28125 C 403.21875 740.242188 402.703125 740.175781 402.195312 740.085938 C 401.683594 739.996094 401.179688 739.878906 400.683594 739.738281 C 400.183594 739.597656 399.691406 739.433594 399.210938 739.246094 C 398.726562 739.058594 398.257812 738.84375 397.796875 738.609375 C 397.332031 738.375 396.886719 738.117188 396.449219 737.839844 C 396.011719 737.558594 395.589844 737.257812 395.183594 736.9375 C 394.777344 736.617188 394.386719 736.277344 394.015625 735.917969 C 393.640625 735.558594 393.289062 735.179688 392.953125 734.785156 C 392.617188 734.394531 392.300781 733.984375 392.003906 733.558594 C 391.710938 733.132812 391.4375 732.691406 391.183594 732.242188 C 390.933594 731.789062 390.703125 731.324219 390.496094 730.851562 C 390.289062 730.375 390.105469 729.890625 389.949219 729.398438 C 389.789062 728.90625 389.65625 728.40625 389.546875 727.898438 C 389.4375 727.394531 389.351562 726.882812 389.292969 726.367188 C 389.234375 725.855469 389.199219 725.335938 389.191406 724.820312 C 389.183594 724.300781 389.199219 723.785156 389.242188 723.269531 C 389.285156 722.753906 389.351562 722.238281 389.445312 721.730469 C 389.539062 721.222656 389.65625 720.71875 389.800781 720.21875 C 389.941406 719.722656 390.109375 719.230469 390.300781 718.75 C 390.492188 718.269531 390.707031 717.796875 390.941406 717.339844 C 391.179688 716.878906 391.441406 716.429688 391.722656 715.996094 C 392.003906 715.5625 392.304688 715.140625 392.628906 714.734375 C 392.949219 714.332031 393.292969 713.941406 393.652344 713.570312 C 394.015625 713.199219 394.394531 712.847656 394.789062 712.515625 C 395.1875 712.179688 395.597656 711.867188 396.023438 711.574219 C 396.449219 711.28125 396.890625 711.007812 397.34375 710.757812 C 397.796875 710.507812 398.261719 710.28125 398.738281 710.078125 C 399.214844 709.875 399.699219 709.691406 400.195312 709.535156 C 400.6875 709.378906 401.1875 709.25 401.695312 709.140625 C 402.199219 709.035156 402.710938 708.953125 403.226562 708.894531 C 403.742188 708.839844 404.257812 708.808594 404.777344 708.800781 C 405.292969 708.796875 405.808594 708.816406 406.328125 708.859375 C 406.84375 708.90625 407.355469 708.976562 407.863281 709.074219 C 408.371094 709.167969 408.875 709.289062 409.371094 709.433594 C 409.871094 709.578125 410.359375 709.75 410.839844 709.941406 C 411.320312 710.136719 411.789062 710.351562 412.25 710.589844 C 412.707031 710.832031 413.152344 711.09375 413.585938 711.375 C 414.019531 711.660156 414.4375 711.964844 414.839844 712.289062 C 415.246094 712.613281 415.632812 712.957031 416 713.320312 C 416.371094 713.683594 416.722656 714.0625 417.054688 714.460938 C 417.386719 714.859375 417.695312 715.273438 417.988281 715.699219 C 418.277344 716.128906 418.546875 716.570312 418.796875 717.023438 C 419.042969 717.480469 419.269531 717.945312 419.46875 718.421875 C 419.671875 718.898438 419.851562 719.386719 420.003906 719.878906 C 420.15625 720.375 420.285156 720.875 420.390625 721.382812 C 420.496094 721.890625 420.574219 722.402344 420.628906 722.917969 C 420.683594 723.433594 420.710938 723.949219 420.714844 724.464844 C 420.683594 725.480469 420.554688 726.480469 420.335938 727.472656 C 420.117188 728.464844 419.808594 729.425781 419.414062 730.359375 C 419.015625 731.292969 418.535156 732.179688 417.972656 733.023438 C 417.414062 733.871094 416.777344 734.65625 416.070312 735.382812 C 415.363281 736.109375 414.59375 736.765625 413.765625 737.351562 C 412.9375 737.933594 412.0625 738.4375 411.140625 738.859375 C 410.21875 739.285156 409.265625 739.617188 408.28125 739.863281 C 407.296875 740.109375 406.296875 740.265625 405.285156 740.324219 Z M 405.285156 740.324219 " fill-opacity="1" fill-rule="nonzero"/></svg>