<?xml version="1.0" encoding="UTF-8" standalone="no"?>
<!DOCTYPE svg PUBLIC "-//W3C//DTD SVG 1.1//EN" "http://www.w3.org/Graphics/SVG/1.1/DTD/svg11.dtd">
<svg width="100%" height="100%" viewBox="0 0 318 318" version="1.1" xmlns="http://www.w3.org/2000/svg" xmlns:xlink="http://www.w3.org/1999/xlink" xml:space="preserve" xmlns:serif="http://www.serif.com/" style="fill-rule:evenodd;clip-rule:evenodd;stroke-linejoin:round;stroke-miterlimit:2;">
    <g transform="matrix(1,0,0,1,-764.343,-1050.69)">
        <path d="M816.578,1364.62L1030.31,1364.62C1043.5,1364.62 1055.49,1359.14 1064.05,1350.4C1072.79,1341.84 1078.1,1329.85 1078.1,1316.66L1078.1,1102.93C1078.1,1089.74 1072.79,1077.75 1064.05,1069.19C1055.49,1060.46 1043.5,1055.15 1030.31,1055.15L816.578,1055.15C803.391,1055.15 791.403,1060.46 782.84,1069.19C774.105,1077.75 768.625,1089.74 768.625,1102.93L768.625,1316.66C768.625,1329.85 774.105,1341.84 782.84,1350.4C791.403,1359.14 803.391,1364.62 816.578,1364.62ZM1030.31,1368.9L816.578,1368.9C802.192,1368.9 789.176,1363.08 779.757,1353.49C770.166,1344.07 764.343,1331.05 764.343,1316.66L764.343,1102.93C764.343,1088.54 770.166,1075.53 779.757,1066.11C789.176,1056.52 802.192,1050.69 816.578,1050.69L1030.31,1050.69C1044.7,1050.69 1057.72,1056.52 1067.13,1066.11C1076.73,1075.53 1082.55,1088.54 1082.55,1102.93L1082.55,1316.66C1082.55,1331.05 1076.73,1344.07 1067.13,1353.49C1057.72,1363.08 1044.7,1368.9 1030.31,1368.9Z" style="fill:rgb(35,31,32);fill-rule:nonzero;"/>
    </g>
    <g transform="matrix(1,0,0,1,-764.343,-1050.69)">
        <path d="M877.376,1109.95L969.687,1109.95C999.315,1109.95 1023.63,1134.44 1023.63,1164.07L1023.63,1255.87C1023.63,1285.49 999.315,1309.81 969.687,1309.81L877.376,1309.81C847.748,1309.81 823.429,1285.49 823.429,1255.87L823.429,1164.07C823.429,1134.44 847.748,1109.95 877.376,1109.95ZM977.222,1144.89C983.559,1144.89 988.697,1150.2 988.697,1156.36C988.697,1162.53 983.559,1167.84 977.222,1167.84C970.543,1167.84 965.748,1162.53 965.748,1156.36C965.748,1150.2 970.543,1144.89 977.222,1144.89ZM923.275,1155.51L923.788,1155.51C953.417,1155.51 978.25,1180.34 978.25,1209.97C978.25,1240.11 953.417,1264.43 923.788,1264.43L923.275,1264.43C893.646,1264.43 869.327,1240.11 869.327,1209.97C869.327,1180.34 893.646,1155.51 923.275,1155.51ZM923.275,1174L923.788,1174C943.312,1174 959.582,1190.27 959.582,1209.97C959.582,1230.01 943.312,1246.27 923.788,1246.27L923.275,1246.27C903.751,1246.27 887.481,1230.01 887.481,1209.97C887.481,1190.27 903.751,1174 923.275,1174ZM877.89,1127.25L969.173,1127.25C989.724,1127.25 1006.51,1144.03 1006.51,1164.58L1006.51,1255.35C1006.51,1275.9 989.724,1292.52 969.173,1292.52L877.89,1292.52C857.339,1292.52 840.555,1275.9 840.555,1255.35L840.555,1164.58C840.555,1144.03 857.339,1127.25 877.89,1127.25Z" style="fill:rgb(35,31,32);"/>
    </g>
</svg>
