<svg xmlns="http://www.w3.org/2000/svg" xmlns:xlink="http://www.w3.org/1999/xlink" width="1080" zoomAndPan="magnify" viewBox="0 0 810 809.999993" height="1080" preserveAspectRatio="xMidYMid meet" version="1.0"><path fill="#f9f9f9" d="M 99.898438 21.195312 C 103.273438 25.246094 108.269531 28.890625 109.890625 33.613281 C 112.859375 42.253906 105.300781 51.03125 95.445312 51.300781 C 85.859375 51.703125 76.273438 51.300781 66.691406 51.433594 C 56.160156 51.570312 50.355469 57.375 49.949219 67.769531 C 49.949219 69.253906 49.949219 70.738281 49.949219 72.359375 C 49.949219 297.675781 49.949219 522.855469 49.949219 748.171875 C 49.949219 755.191406 49.949219 762.480469 56.96875 765.988281 C 61.019531 768.015625 66.148438 768.691406 70.738281 768.691406 C 244.078125 768.824219 417.285156 768.824219 590.625 768.824219 C 593.460938 768.824219 596.160156 768.691406 598.996094 768.960938 C 607.09375 769.769531 613.035156 776.25 613.035156 784.078125 C 613.035156 791.910156 607.09375 798.253906 598.859375 799.066406 C 596.566406 799.335938 594.269531 799.199219 592.109375 799.199219 C 418.09375 799.199219 244.078125 799.199219 69.929688 799.199219 C 38.203125 799.199219 19.84375 780.703125 19.84375 748.84375 C 19.84375 524.609375 19.84375 300.375 19.84375 76.140625 C 19.84375 44.144531 27.945312 32.398438 57.644531 21.328125 C 71.683594 21.195312 85.726562 21.195312 99.898438 21.195312 Z M 99.898438 21.195312 " fill-opacity="1" fill-rule="nonzero"/><path fill="#f9f9f9" d="M 794.609375 761.265625 C 790.695312 768.824219 787.859375 777.058594 782.730469 783.675781 C 775.035156 793.664062 763.695312 798.523438 751.003906 798.929688 C 740.746094 799.335938 730.351562 799.199219 719.953125 799.066406 C 710.234375 798.929688 703.621094 792.449219 703.753906 783.808594 C 703.890625 775.167969 710.503906 769.09375 720.359375 768.824219 C 729.40625 768.691406 738.585938 768.960938 747.628906 768.691406 C 758.160156 768.554688 763.964844 762.75 764.371094 752.355469 C 764.371094 750.601562 764.371094 748.84375 764.371094 747.089844 C 764.371094 522.316406 764.371094 297.675781 764.371094 72.898438 C 764.371094 55.753906 760.050781 51.300781 743.039062 51.300781 C 570.238281 51.300781 397.574219 51.300781 224.773438 51.300781 C 222.210938 51.300781 219.78125 51.300781 217.214844 51.300781 C 209.519531 51.164062 204.121094 47.386719 202.09375 40.09375 C 200.070312 32.941406 202.90625 27.269531 208.980469 23.21875 C 210.058594 22.546875 211.003906 21.871094 211.949219 21.058594 C 393.523438 21.058594 575.234375 21.058594 756.808594 21.058594 C 776.789062 26.324219 789.34375 38.878906 794.609375 58.859375 C 794.609375 293.085938 794.609375 527.175781 794.609375 761.265625 Z M 794.609375 761.265625 " fill-opacity="1" fill-rule="nonzero"/><path fill="#f9f9f9" d="M 160.378906 21.195312 C 161.59375 22.003906 162.808594 22.816406 164.023438 23.761719 C 169.828125 28.078125 172.53125 33.75 170.234375 40.769531 C 167.941406 47.65625 162.808594 51.570312 155.519531 51.300781 C 148.5 51.164062 143.640625 47.386719 141.613281 40.769531 C 139.320312 33.75 141.886719 28.078125 147.824219 23.761719 C 149.039062 22.949219 150.253906 22.140625 151.46875 21.195312 C 154.441406 21.195312 157.410156 21.195312 160.378906 21.195312 Z M 160.378906 21.195312 " fill-opacity="1" fill-rule="nonzero"/><path fill="#f9f9f9" d="M 449.953125 328.859375 C 452.925781 326.835938 455.355469 325.214844 457.785156 323.59375 C 548.640625 261.359375 673.921875 318.058594 686.746094 427.273438 C 687.691406 434.699219 687.824219 442.394531 687.824219 449.953125 C 687.960938 523.125 687.824219 596.296875 687.824219 669.328125 C 687.824219 686.878906 683.371094 691.335938 665.953125 691.335938 C 633.417969 691.335938 600.886719 691.335938 568.351562 691.335938 C 550.664062 691.335938 546.210938 687.015625 546.210938 669.601562 C 546.210938 603.316406 546.34375 536.894531 546.074219 470.609375 C 545.941406 435.105469 509.085938 413.101562 478.441406 430.109375 C 464.804688 437.671875 456.839844 449.414062 455.085938 465.074219 C 454.679688 469.125 454.679688 473.175781 454.679688 477.226562 C 454.679688 541.351562 454.679688 605.339844 454.679688 669.464844 C 454.679688 686.878906 450.226562 691.335938 432.808594 691.335938 C 399.464844 691.335938 366.253906 691.335938 332.910156 691.335938 C 318.464844 691.335938 313.199219 686.203125 313.199219 671.894531 C 313.199219 556.199219 313.199219 440.371094 313.199219 324.675781 C 313.199219 310.5 318.195312 305.503906 332.371094 305.503906 C 364.363281 305.503906 396.496094 305.503906 428.488281 305.503906 C 444.148438 305.503906 448.335938 309.554688 449.28125 325.484375 C 449.28125 326.296875 449.683594 327.238281 449.953125 328.859375 Z M 657.179688 659.203125 C 657.316406 656.371094 657.585938 654.34375 657.585938 652.453125 C 657.585938 583.605469 657.855469 514.753906 657.316406 445.90625 C 657.179688 433.214844 655.289062 419.984375 651.238281 408.105469 C 636.523438 365.578125 606.554688 338.714844 562.410156 330.480469 C 516.644531 321.976562 478.574219 337.363281 448.738281 373.140625 C 441.585938 381.78125 436.320312 384.210938 428.894531 381.644531 C 421.605469 379.078125 418.90625 373.949219 418.90625 362.609375 C 418.90625 353.835938 418.90625 345.058594 418.90625 336.285156 C 393.253906 336.285156 368.683594 336.285156 344.113281 336.285156 C 344.113281 444.285156 344.113281 551.746094 344.113281 659.746094 C 368.683594 659.746094 392.578125 659.476562 416.476562 659.878906 C 422.820312 660.015625 424.574219 658.125 424.574219 651.78125 C 424.304688 610.875 424.441406 570.105469 424.441406 529.199219 C 424.441406 507.734375 423.898438 486.269531 424.980469 464.941406 C 426.464844 436.726562 440.910156 415.800781 465.75 402.839844 C 515.96875 376.648438 575.910156 412.828125 576.316406 469.933594 C 576.855469 530.011719 576.449219 589.949219 576.449219 650.023438 C 576.449219 652.996094 576.449219 655.964844 576.449219 659.339844 C 603.71875 659.203125 630.046875 659.203125 657.179688 659.203125 Z M 657.179688 659.203125 " fill-opacity="1" fill-rule="nonzero"/><path fill="#f9f9f9" d="M 277.019531 498.554688 C 277.019531 556.066406 277.019531 613.574219 277.019531 671.085938 C 277.019531 686.476562 272.023438 691.46875 256.636719 691.46875 C 222.886719 691.46875 189 691.46875 155.25 691.46875 C 140.804688 691.46875 135.539062 686.339844 135.539062 671.894531 C 135.539062 556.335938 135.539062 440.910156 135.539062 325.351562 C 135.539062 310.363281 140.398438 305.640625 155.65625 305.640625 C 189.269531 305.640625 222.75 305.640625 256.363281 305.640625 C 272.699219 305.640625 277.15625 310.09375 277.15625 326.160156 C 277.019531 383.535156 277.019531 441.046875 277.019531 498.554688 Z M 166.320312 336.148438 C 166.320312 444.285156 166.320312 551.609375 166.320312 659.203125 C 193.183594 659.203125 219.511719 659.203125 246.238281 659.203125 C 246.238281 551.339844 246.238281 443.878906 246.238281 336.148438 C 219.511719 336.148438 193.183594 336.148438 166.320312 336.148438 Z M 166.320312 336.148438 " fill-opacity="1" fill-rule="nonzero"/><path fill="#f9f9f9" d="M 126.496094 209.113281 C 126.226562 165.238281 162.136719 128.925781 206.011719 128.925781 C 249.613281 128.789062 285.660156 164.566406 285.929688 208.035156 C 286.335938 253.394531 251.234375 289.710938 206.683594 290.25 C 162.675781 290.789062 126.765625 254.609375 126.496094 209.113281 Z M 255.691406 208.980469 C 255.691406 181.710938 233.414062 159.300781 206.144531 159.164062 C 179.011719 159.164062 156.601562 181.574219 156.601562 208.84375 C 156.601562 236.925781 178.46875 259.605469 205.605469 259.875 C 233.144531 260.28125 255.691406 237.195312 255.691406 208.980469 Z M 255.691406 208.980469 " fill-opacity="1" fill-rule="nonzero"/><path fill="#f9f9f9" d="M 658.394531 799.066406 C 650.023438 799.066406 643.140625 792.046875 643.273438 783.675781 C 643.410156 775.574219 650.160156 768.960938 658.261719 768.960938 C 666.628906 768.960938 673.648438 775.980469 673.378906 784.351562 C 673.246094 792.316406 666.496094 799.066406 658.394531 799.066406 Z M 658.394531 799.066406 " fill-opacity="1" fill-rule="nonzero"/></svg>