<?xml version="1.0" encoding="UTF-8" standalone="no"?>
<!DOCTYPE svg PUBLIC "-//W3C//DTD SVG 1.1//EN" "http://www.w3.org/Graphics/SVG/1.1/DTD/svg11.dtd">
<svg width="100%" height="100%" viewBox="0 0 318 318" version="1.1" xmlns="http://www.w3.org/2000/svg" xmlns:xlink="http://www.w3.org/1999/xlink" xml:space="preserve" xmlns:serif="http://www.serif.com/" style="fill-rule:evenodd;clip-rule:evenodd;stroke-linejoin:round;stroke-miterlimit:2;">
    <g transform="matrix(1,0,0,1,-1668.27,-1438.94)">
        <path d="M1720.5,1752.7L1934.24,1752.7C1947.42,1752.7 1959.41,1747.39 1968.15,1738.65C1976.71,1729.92 1982.19,1717.93 1982.19,1704.74L1982.19,1491.18C1982.19,1477.99 1976.71,1466 1968.15,1457.27C1959.41,1448.71 1947.42,1443.23 1934.24,1443.23L1720.5,1443.23C1707.48,1443.23 1695.5,1448.71 1686.76,1457.27C1678.03,1466 1672.72,1477.99 1672.72,1491.18L1672.72,1704.74C1672.72,1717.93 1678.03,1729.92 1686.76,1738.65C1695.5,1747.39 1707.48,1752.7 1720.5,1752.7ZM1934.24,1757.15L1720.5,1757.15C1706.29,1757.15 1693.1,1751.16 1683.68,1741.74C1674.26,1732.32 1668.27,1719.13 1668.27,1704.74L1668.27,1491.18C1668.27,1476.79 1674.26,1463.78 1683.68,1454.19C1693.1,1444.77 1706.29,1438.94 1720.5,1438.94L1934.24,1438.94C1948.62,1438.94 1961.64,1444.77 1971.23,1454.19C1980.65,1463.78 1986.47,1476.79 1986.47,1491.18L1986.47,1704.74C1986.47,1719.13 1980.65,1732.32 1971.23,1741.74C1961.64,1751.16 1948.62,1757.15 1934.24,1757.15Z" style="fill:white;fill-rule:nonzero;"/>
    </g>
    <g transform="matrix(1,0,0,1,-1668.27,-1438.94)">
        <path d="M1740.37,1566.36L1775.65,1566.36L1775.65,1685.05L1740.37,1685.05L1740.37,1566.36ZM1757.84,1506.25C1769.48,1506.25 1779.07,1515.84 1779.07,1527.66C1779.07,1539.3 1769.48,1548.9 1757.84,1548.9C1746.02,1548.9 1736.77,1539.3 1736.77,1527.66C1736.77,1515.84 1746.02,1506.25 1757.84,1506.25ZM1796.54,1566.36L1831.48,1566.36L1831.48,1582.98C1838.84,1572.02 1851,1565.17 1865.05,1565.17L1874.64,1565.17C1896.9,1565.17 1914.71,1583.32 1914.71,1605.24L1914.71,1685.05L1879.77,1685.05L1879.77,1620.83C1879.43,1607.3 1870.18,1596.85 1856.65,1596.85C1843.12,1596.85 1831.82,1607.3 1831.48,1620.83L1831.48,1685.05L1796.54,1685.05L1796.54,1566.36Z" style="fill:white;"/>
    </g>
</svg>
